<svg width="24" height="24" viewBox="0 0 24 24" fill="none" xmlns="http://www.w3.org/2000/svg">
<mask id="path-1-inside-1" fill="white">
<path fill-rule="evenodd" clip-rule="evenodd" d="M10.1636 0C9.059 0 8.16357 0.895431 8.16357 2V10.0991L3.64678 12.9489C2.94952 13.3888 2.59364 14.2115 2.75049 15.0209L4.17673 22.3804C4.35897 23.3208 5.18235 23.9999 6.1402 23.9999H17.8605C18.8184 23.9999 19.6417 23.3208 19.824 22.3804L21.2502 15.0208C21.4071 14.2115 21.0512 13.3888 20.3539 12.9489L15.9836 10.1915V2C15.9836 0.895431 15.0881 0 13.9836 0H10.1636Z"/>
</mask>
<path d="M8.16357 10.0991L9.23076 11.7906L10.1636 11.2021V10.0991H8.16357ZM3.64678 12.9489L4.71396 14.6403L4.71396 14.6403L3.64678 12.9489ZM2.75049 15.0209L0.787023 15.4014L2.75049 15.0209ZM4.17673 22.3804L6.1402 21.9999H6.1402L4.17673 22.3804ZM19.824 22.3804L21.7874 22.761L19.824 22.3804ZM21.2502 15.0208L19.2867 14.6403L21.2502 15.0208ZM20.3539 12.9489L21.4211 11.2574L21.4211 11.2574L20.3539 12.9489ZM15.9836 10.1915H13.9836V11.2945L14.9164 11.883L15.9836 10.1915ZM10.1636 2V2V-2C7.95443 -2 6.16357 -0.209138 6.16357 2H10.1636ZM10.1636 10.0991V2H6.16357V10.0991H10.1636ZM4.71396 14.6403L9.23076 11.7906L7.09639 8.40766L2.5796 11.2574L4.71396 14.6403ZM4.71396 14.6403L4.71396 14.6403L2.5796 11.2574C1.18507 12.1372 0.473318 13.7826 0.787023 15.4014L4.71396 14.6403ZM6.1402 21.9999L4.71396 14.6403L0.787023 15.4014L2.21326 22.761L6.1402 21.9999ZM6.1402 21.9999H6.1402L2.21326 22.761C2.57773 24.6417 4.22449 25.9999 6.1402 25.9999V21.9999ZM17.8605 21.9999H6.1402V25.9999H17.8605V21.9999ZM17.8605 21.9999L17.8605 21.9999V25.9999C19.7762 25.9999 21.423 24.6417 21.7874 22.761L17.8605 21.9999ZM19.2867 14.6403L17.8605 21.9999L21.7874 22.761L23.2137 15.4014L19.2867 14.6403ZM19.2867 14.6403V14.6403L23.2137 15.4014C23.5274 13.7826 22.8156 12.1372 21.4211 11.2574L19.2867 14.6403ZM14.9164 11.883L19.2867 14.6403L21.4211 11.2574L17.0508 8.50006L14.9164 11.883ZM13.9836 2V10.1915H17.9836V2H13.9836ZM13.9836 2H13.9836H17.9836C17.9836 -0.209136 16.1927 -2 13.9836 -2V2ZM10.1636 2H13.9836V-2H10.1636V2Z" fill="#333333" mask="url(#path-1-inside-1)"/>
<line x1="9.62598" y1="3.98682" x2="14.426" y2="3.98682" stroke="#333333" stroke-width="2"/>
<line x1="9.62598" y1="7.98682" x2="14.426" y2="7.98682" stroke="#333333" stroke-width="2"/>
<rect x="9.14746" y="15.1802" width="5.70794" height="3.98914" rx="1" stroke="#FA4F4F" stroke-width="2"/>
</svg>
