<svg width="24" height="22" viewBox="0 0 24 22" fill="none" xmlns="http://www.w3.org/2000/svg">
<path fill-rule="evenodd" clip-rule="evenodd" d="M3.14193 5.70647C4.20418 4.5676 6.16439 3.65501 8.57951 3.10814C10.9441 2.5727 13.4251 2.46043 15.2137 2.66447C19.1877 3.11782 20.8302 3.87338 21.7702 4.88689C21.9849 5.11844 22.0288 5.39871 21.9801 5.55373C21.9525 5.64165 21.6918 6.31569 19.7857 6.83553C18.55 7.17255 17.5498 7.59447 16.798 8.20357C15.9601 8.88245 15.5787 9.67074 15.3884 10.4058C15.2411 10.9744 15.1939 11.3121 15.1613 11.5455C15.1096 11.9154 15.0945 12.0235 14.7759 12.3733C14.4035 12.7822 13.3421 13.3007 11.5099 13.4109C9.77684 13.515 7.72647 13.2225 5.82889 12.4718C3.44355 11.5282 2.42405 10.2104 2.11773 9.13853C1.8164 8.0841 2.07935 6.8457 3.14193 5.70647ZM1.67937 4.34231C4.6112 1.199 11.383 0.214496 15.4404 0.677359C19.4978 1.14022 21.7781 1.95438 23.2366 3.52685C23.688 4.01361 24.0253 4.73544 23.9986 5.50696H24.0001V11.6216H23.9919C23.8968 12.7874 22.9524 14.0447 20.3119 14.7648C17.5245 15.525 17.3794 16.4364 17.2061 17.5257C17.1005 18.189 16.9844 18.9184 16.2546 19.7197C14.4633 21.6866 9.43378 22.0484 5.0932 20.3313C1.61626 18.9559 0.00845199 16.6359 0.000125971 14.322H0V8.48273H0.0032697C-0.0484548 7.03045 0.532475 5.57194 1.67937 4.34231ZM2.00009 12.4763V14.4033L2.00277 14.4036C2.01089 14.6557 2.05009 14.9016 2.11773 15.1383C2.42405 16.2102 3.44355 17.528 5.82889 18.4716C7.72647 19.2222 9.77684 19.5148 11.5099 19.4106C13.3421 19.3004 14.4035 18.782 14.7759 18.3731C15.0945 18.0232 15.1096 17.9151 15.1613 17.5453C15.1939 17.3118 15.2411 16.9741 15.3884 16.4055C15.5787 15.6705 15.9601 14.8822 16.798 14.2033C17.5498 13.5942 18.55 13.1723 19.7857 12.8353C21.6918 12.3154 21.9525 11.6414 21.9801 11.5535C21.9899 11.5221 21.996 11.4857 21.9976 11.4455L22.0001 11.4452V8.12758C21.5363 8.36753 20.9781 8.58339 20.3119 8.76506C17.5245 9.52527 17.3794 10.4366 17.2061 11.5259C17.1005 12.1893 16.9844 12.9186 16.2546 13.72C14.4633 15.6868 9.43378 16.0486 5.0932 14.3316C3.81341 13.8253 2.78686 13.1911 2.00009 12.4763Z" fill="#333333"/>
<ellipse cx="12.9424" cy="6.11027" rx="2.90329" ry="1.88982" fill="#FA4F4F"/>
</svg>
