<svg width="24" height="24" viewBox="0 0 24 24" fill="none" xmlns="http://www.w3.org/2000/svg">
<path d="M5.15813 14.9921C3.35761 9.86374 9.60795 3.96267 14.1933 5.42318" stroke="#FA4F4F" stroke-width="2" stroke-linecap="round"/>
<path d="M22.2937 4.41374L22.3752 4.48497L22.47 4.53712C22.513 4.56078 22.5483 4.58758 22.5784 4.61768C22.7226 4.76189 22.909 5.2207 22.5776 6.20933C22.268 7.13337 21.5766 8.2454 20.542 9.27997C19.5075 10.3145 18.3954 11.0059 17.4714 11.3156C16.4828 11.6469 16.024 11.4605 15.8797 11.3163C15.8619 11.2985 15.8456 11.2792 15.8305 11.258L15.7479 11.1419L15.6362 11.0535L15.2948 10.7833L14.6742 11.5675L15.2948 10.7833C14.9891 10.5414 14.6655 10.3141 14.3233 10.1386C14.3708 10.1629 14.4182 10.1884 14.4652 10.2148L15.5062 10.7985L15.8987 9.67141C16.2171 8.75712 16.9022 7.66792 17.9161 6.65404C18.7561 5.81406 19.6524 5.1954 20.4615 4.82686L21.9768 4.13667L22.2937 4.41374ZM14.8352 1.04472C16.5016 1.19306 18.018 1.69646 19.2864 2.33009C18.0229 1.69901 16.506 1.19345 14.8352 1.04472ZM4.37448 22.6236L4.32319 22.5279L4.25253 22.4454C4.15735 22.3342 4.06103 22.2169 3.96412 22.0938L4.71326 20.5216C5.08665 19.738 5.68915 18.8803 6.49433 18.0751C7.53528 17.0342 8.65431 16.341 9.58124 16.0341L10.6574 15.6779L10.1697 14.6546C10.0758 14.4577 9.99563 14.2552 9.93292 14.0487C10.139 14.7273 10.5276 15.3411 10.9152 15.8157L10.9972 15.9161L11.1021 15.9923C11.1217 16.0065 11.1398 16.022 11.1566 16.0388C11.3008 16.183 11.4872 16.6418 11.1559 17.6304C10.8462 18.5545 10.1548 19.6665 9.12026 20.7011C8.08569 21.7356 6.97366 22.427 6.04962 22.7367C5.061 23.068 4.60218 22.8816 4.45797 22.7374C4.42672 22.7062 4.3989 22.6692 4.37448 22.6236ZM10.4435 11.2595C10.1739 11.5984 9.98573 11.9598 9.88044 12.3429C9.87988 12.3449 9.87933 12.347 9.87878 12.349C9.97814 11.9832 10.159 11.617 10.4435 11.2595Z" fill="white" stroke="#333333" stroke-width="2"/>
</svg>
