<svg width="25" height="24" viewBox="0 0 25 24" fill="none" xmlns="http://www.w3.org/2000/svg">
<path d="M11 11.7275C11 14.1545 10.3685 16.3049 9.40037 17.8176C8.42508 19.3415 7.19911 20.1025 6 20.1025C4.80089 20.1025 3.57492 19.3415 2.59963 17.8176C1.63151 16.3049 1 14.1545 1 11.7275C1 9.3006 1.63151 7.15016 2.59963 5.63747C3.57492 4.11358 4.80089 3.35254 6 3.35254C7.19911 3.35254 8.42508 4.11358 9.40037 5.63747C10.3685 7.15016 11 9.3006 11 11.7275Z" stroke="#333333" stroke-width="2"/>
<path d="M7.27647 11.7258C7.27647 12.4182 7.07388 13.0034 6.79673 13.3902C6.51833 13.7787 6.22298 13.9033 5.99956 13.9033C5.77615 13.9033 5.4808 13.7787 5.2024 13.3902C4.92525 13.0034 4.72266 12.4182 4.72266 11.7258C4.72266 11.0335 4.92525 10.4482 5.2024 10.0615C5.4808 9.67296 5.77615 9.54834 5.99956 9.54834C6.22298 9.54834 6.51833 9.67296 6.79673 10.0615C7.07388 10.4482 7.27647 11.0335 7.27647 11.7258Z" stroke="#FA4F4F" stroke-width="2"/>
<path d="M5.98242 3.33789C11.9585 3.33789 15.8371 6.87221 18.0366 9.53538C18.6059 10.2246 19.8143 9.9673 20.0898 9.11691C20.5065 7.83116 21.1381 6.43526 22.0131 5.73425C22.4784 5.36153 23.0212 5.81027 23.0212 6.40641C23.0212 10.2306 23.0212 13.5623 23.0212 16.4587C23.0212 17.2089 22.2382 17.6489 21.7273 17.0996C20.9252 16.2371 20.3731 15.1209 20.019 14.1237C19.7301 13.3101 18.562 12.9482 17.9585 13.5656C15.2092 16.3783 10.8005 20.4067 5.98242 20.1015" stroke="#333333" stroke-width="2"/>
</svg>
