<svg width="24" height="24" viewBox="0 0 24 24" fill="none" xmlns="http://www.w3.org/2000/svg">
<path fill-rule="evenodd" clip-rule="evenodd" d="M4.57361 9.0402C6.42879 9.89048 9.13221 10.4692 12.2256 10.4692C12.7198 10.4692 13.2055 10.4544 13.6805 10.4259C13.3897 10.2361 13.1013 10.0499 12.825 9.87162L12.825 9.87161L12.825 9.87159L12.825 9.87158C12.7034 9.79309 12.5842 9.71613 12.4682 9.64107C12.0284 9.35655 11.6044 9.07967 11.3122 8.86887C11.1997 8.78766 10.9714 8.62175 10.7836 8.42561C10.7291 8.36871 10.6311 8.26138 10.5334 8.11352C10.4669 8.01293 10.229 7.6466 10.1961 7.11039C10.1771 6.80094 10.2264 6.41359 10.4349 6.02815C10.6432 5.64308 10.9398 5.39072 11.207 5.23787C11.6705 4.97281 12.1046 4.96924 12.2256 4.96924H20.0293C19.6137 4.77034 19.1364 4.57776 18.595 4.39944C16.8526 3.82558 14.6513 3.46924 12.2256 3.46924C9.13221 3.46924 6.42879 4.04799 4.57361 4.89828C2.60576 5.80021 2.24663 6.65439 2.22652 6.94359H2.22754V7.0071C2.25678 7.30752 2.63275 8.15063 4.57361 9.0402ZM0.227539 7.06948C0.226239 7.03614 0.225586 7.00272 0.225586 6.96924C0.225586 3.93167 5.59817 1.46924 12.2256 1.46924C17.446 1.46924 21.8878 2.99709 23.5385 5.1304C23.7288 5.37633 23.7955 5.62954 23.7686 5.86642V15.6644C23.8472 16.3558 23.1073 16.9692 22.2268 16.9692H17.3428V21.0509C17.3441 21.0771 17.3441 21.1032 17.3428 21.1289V21.1435H17.3419C17.3052 21.6644 16.732 22.0888 15.7802 22.2239C14.657 22.3834 13.4632 22.4692 12.2256 22.4692C5.59817 22.4692 0.225586 20.0068 0.225586 16.9692C0.225586 16.9357 0.226239 16.9023 0.227539 16.869L0.227539 7.06948ZM2.22754 13.9266V10.0119C4.37766 11.4931 8.05291 12.4692 12.2256 12.4692C13.3038 12.4692 14.3487 12.4041 15.3428 12.2818V20.2873C14.8656 20.3429 14.3052 20.3902 13.6647 20.4156L13.6805 20.4259C13.2055 20.4544 12.7198 20.4692 12.2256 20.4692C9.13221 20.4692 6.42879 19.8905 4.57361 19.0402C2.54375 18.1098 2.22559 17.2303 2.22559 16.9692H2.22754V16.9314C2.22908 16.9155 2.23159 16.8982 2.23524 16.8794V13.9213C2.23267 13.923 2.2301 13.9248 2.22754 13.9266ZM17.3428 11.1355H17.3424C17.3638 10.7778 17.1327 10.3752 16.5983 9.98982C16.1352 9.65587 15.6185 9.30671 15.1064 8.96924C14.6929 8.6967 14.2824 8.43179 13.9057 8.18868L13.8253 8.1368C13.0148 7.61365 12.3753 7.19898 12.2256 7.03975C12.1825 6.99391 12.1799 6.96924 12.2256 6.96924H21.7686V13.6342L21.758 13.6278V13.9692C21.758 14.5215 21.3103 14.9692 20.758 14.9692L17.3428 14.9693V11.1355Z" fill="black"/>
<circle cx="4.69532" cy="14.0147" r="1.22754" fill="#FA4F4F"/>
<circle cx="7.57202" cy="6.95374" r="1.22754" fill="#FA4F4F"/>
<circle cx="11.1162" cy="15.946" r="1.95697" fill="#FA4F4F"/>
</svg>
