<svg width="24" height="24" viewBox="0 0 24 24" fill="none" xmlns="http://www.w3.org/2000/svg">
<mask id="path-1-inside-1" fill="white">
<path fill-rule="evenodd" clip-rule="evenodd" d="M12.0397 23.4876C11.858 23.5553 11.6723 23.6161 11.4828 23.6696C7.25414 24.8625 2.73215 21.9514 1.38262 17.1676C0.0330963 12.3837 2.36708 7.53861 6.59572 6.34572C8.45153 5.82219 10.3638 6.0891 12.0397 6.95785C13.7155 6.0891 15.6278 5.82219 17.4836 6.34572C21.7123 7.53861 24.0463 12.3837 22.6967 17.1676C21.3472 21.9514 16.8252 24.8625 12.5966 23.6696C12.4071 23.6161 12.2214 23.5553 12.0397 23.4876Z"/>
</mask>
<path d="M12.0397 23.4876L12.7387 21.6137L12.0397 21.3529L11.3406 21.6137L12.0397 23.4876ZM11.4828 23.6696L12.0258 25.5945L12.0258 25.5945L11.4828 23.6696ZM1.38262 17.1676L-0.542254 17.7106L1.38262 17.1676ZM6.59572 6.34572L7.13873 8.27059L6.59572 6.34572ZM12.0397 6.95785L11.1192 8.73345L12.0397 9.21061L12.9601 8.73345L12.0397 6.95785ZM17.4836 6.34572L16.9406 8.27059L17.4836 6.34572ZM22.6967 17.1676L20.7719 16.6246L22.6967 17.1676ZM12.5966 23.6696L12.0536 25.5945L12.0536 25.5945L12.5966 23.6696ZM11.3406 21.6137C11.2101 21.6624 11.0765 21.7061 10.9398 21.7447L12.0258 25.5945C12.268 25.5261 12.5058 25.4483 12.7387 25.3614L11.3406 21.6137ZM10.9398 21.7447C7.99052 22.5767 4.42202 20.5754 3.3075 16.6246L-0.542254 17.7106C1.04227 23.3275 6.51776 27.1483 12.0258 25.5945L10.9398 21.7447ZM3.3075 16.6246C2.19297 12.6738 4.18948 9.10257 7.13873 8.27059L6.05272 4.42084C0.544687 5.97465 -2.12678 12.0937 -0.542254 17.7106L3.3075 16.6246ZM7.13873 8.27059C8.45881 7.8982 9.84956 8.07527 11.1192 8.73345L12.9601 5.18225C10.8781 4.10294 8.44424 3.74619 6.05272 4.42084L7.13873 8.27059ZM18.0266 4.42084C15.6351 3.74619 13.2013 4.10294 11.1192 5.18225L12.9601 8.73345C14.2298 8.07527 15.6205 7.8982 16.9406 8.27059L18.0266 4.42084ZM24.6216 17.7106C26.2061 12.0937 23.5347 5.97465 18.0266 4.42084L16.9406 8.27059C19.8899 9.10257 21.8864 12.6738 20.7719 16.6246L24.6216 17.7106ZM12.0536 25.5945C17.5616 27.1483 23.0371 23.3275 24.6216 17.7106L20.7719 16.6246C19.6573 20.5754 16.0888 22.5767 13.1396 21.7447L12.0536 25.5945ZM11.3406 25.3614C11.5736 25.4483 11.8113 25.5261 12.0536 25.5945L13.1396 21.7447C13.0029 21.7061 12.8692 21.6624 12.7387 21.6137L11.3406 25.3614Z" fill="#333333" mask="url(#path-1-inside-1)"/>
<path d="M15.3888 1.88928C15.819 1.54293 15.887 0.913424 15.5406 0.483235C15.1943 0.0530463 14.5648 -0.0149207 14.1346 0.331426L15.3888 1.88928ZM12.8695 7.58307C12.6557 6.68166 12.7316 4.02863 15.3888 1.88928L14.1346 0.331426C10.8066 3.0108 10.5535 6.48482 10.9235 8.04459L12.8695 7.58307Z" fill="#333333"/>
<path d="M5.63522 16.084C4.96295 13.7009 6.12564 11.2873 8.23215 10.6931" stroke="#FA4F4F" stroke-width="2" stroke-linecap="round"/>
<path d="M10.2156 1.13831C10.9192 1.40918 11.1223 1.72622 11.1943 1.95588C11.2833 2.24013 11.2576 2.66719 11.0265 3.26759C10.7953 3.868 10.528 4.20203 10.2714 4.35319C10.064 4.47533 9.7007 4.5743 8.99709 4.30343C8.74444 4.20617 8.43715 3.98189 8.09765 3.61538C7.76649 3.25788 7.45495 2.82003 7.18203 2.3786C7.01784 2.11303 6.87221 1.85365 6.7489 1.62085C6.99649 1.53082 7.27846 1.43606 7.57834 1.34915C8.07681 1.20468 8.60153 1.08876 9.08693 1.04561C9.58456 1.00138 9.96292 1.04105 10.2156 1.13831Z" stroke="#333333" stroke-width="2"/>
</svg>
