<svg width="24" height="24" viewBox="0 0 24 24" fill="none" xmlns="http://www.w3.org/2000/svg">
<path d="M21.2536 18.9023C21.2536 19.7242 20.5566 20.7408 18.8053 21.6115C17.1155 22.4516 14.7109 23 12.0003 23C9.28978 23 6.88523 22.4516 5.19537 21.6115C3.44407 20.7408 2.74707 19.7242 2.74707 18.9023C2.74707 18.0805 3.44407 17.0639 5.19537 16.1932C6.88523 15.353 9.28978 14.8047 12.0003 14.8047C14.7109 14.8047 17.1155 15.353 18.8053 16.1932C20.5566 17.0639 21.2536 18.0805 21.2536 18.9023Z" stroke="#333333" stroke-width="2"/>
<path d="M2.74658 18.9024V12.2394C2.74658 10.8316 3.48656 9.52755 4.69502 8.80554L7.09105 7.37402" stroke="#333333" stroke-width="2"/>
<path d="M21.2515 18.902V12.2775C21.2515 10.8491 20.4897 9.52908 19.253 8.81432L16.76 7.37355" stroke="#333333" stroke-width="2"/>
<rect x="3.74609" y="13.4058" width="16.5039" height="5.49639" fill="white"/>
<path d="M2.36182 7.08965L5.54866 6.09853C5.74097 6.03872 5.94121 6.0083 6.14261 6.0083H18.0912C18.2945 6.0083 18.4966 6.03955 18.6904 6.10094L21.9507 7.1338C22.9486 7.44992 22.8978 8.87896 21.8799 9.12334C21.4155 9.23486 21.088 9.65026 21.088 10.1279V10.3032C21.088 11.2305 20.1172 11.8378 19.2833 11.4322L17.9131 10.7657C17.1999 10.4188 16.3492 10.526 15.7444 11.039L14.6509 11.9667C14.0829 12.4485 13.2942 12.5748 12.6042 12.2944L9.78413 11.1485C9.38676 10.9871 8.94802 10.9576 8.53265 11.0646L5.4169 11.8666C4.467 12.1112 3.4994 11.5365 3.25962 10.5854L3.18412 10.2859C3.08016 9.87353 2.76893 9.5451 2.36276 9.41914C1.21875 9.06436 1.2181 7.44535 2.36182 7.08965Z" fill="white" stroke="#333333" stroke-width="2"/>
<path d="M17.9019 6.43129C17.9019 6.793 17.58 7.393 16.4353 7.96214C15.3519 8.50074 13.7853 8.86258 12.0003 8.86258C10.2152 8.86258 8.64858 8.50074 7.56526 7.96214C6.42049 7.393 6.09863 6.793 6.09863 6.43129C6.09863 6.06958 6.42049 5.46959 7.56526 4.90044C8.64858 4.36184 10.2152 4 12.0003 4C13.7853 4 15.3519 4.36184 16.4353 4.90044C17.58 5.46959 17.9019 6.06958 17.9019 6.43129Z" fill="white" stroke="#333333" stroke-width="2"/>
<rect x="7.13672" y="4.11426" width="9.72656" height="2.31531" fill="white"/>
<path d="M17.9019 3.43129C17.9019 3.793 17.58 4.393 16.4353 4.96214C15.3519 5.50074 13.7853 5.86258 12.0003 5.86258C10.2152 5.86258 8.64858 5.50074 7.56526 4.96214C6.42049 4.393 6.09863 3.793 6.09863 3.43129C6.09863 3.06958 6.42049 2.46959 7.56526 1.90044C8.64858 1.36184 10.2152 1 12.0003 1C13.7853 1 15.3519 1.36184 16.4353 1.90044C17.58 2.46959 17.9019 3.06958 17.9019 3.43129Z" fill="white" stroke="#333333" stroke-width="2"/>
<line x1="6.09863" y1="3.43115" x2="6.09863" y2="6.43117" stroke="#333333" stroke-width="2"/>
<line x1="17.9014" y1="3.43115" x2="17.9014" y2="6.43117" stroke="#333333" stroke-width="2"/>
<path d="M8.56104 16.636C8.56104 15.9664 9.33817 15.2663 10.2854 15.4215C10.8397 15.5123 11.441 15.5745 12.0523 15.5745C12.6635 15.5745 13.2648 15.5123 13.8191 15.4215C14.7663 15.2663 15.5435 15.9664 15.5435 16.636V17.7275C15.5435 18.1255 15.3281 18.3742 15.0935 18.446C14.3599 18.6702 13.2933 18.905 12.0523 18.905C10.8112 18.905 9.74464 18.6702 9.01099 18.446C8.77642 18.3742 8.56104 18.1255 8.56104 17.7275V16.636Z" stroke="#FA4F4F" stroke-width="2"/>
</svg>
