<svg width="24" height="24" viewBox="0 0 24 24" fill="none" xmlns="http://www.w3.org/2000/svg">
<path d="M2.53604 21.7548C1.25215 20.471 0.925403 18.5134 1.72272 16.8821L2.61481 15.0569C5.25343 9.65848 9.61746 5.29445 15.0159 2.65583L16.8411 1.76374C18.4724 0.966418 20.4299 1.29316 21.7138 2.57705C23.374 4.23721 23.374 6.92886 21.7138 8.58902L8.548 21.7549C6.88784 23.415 4.19619 23.415 2.53604 21.7548Z" stroke="#333333" stroke-width="2"/>
<path d="M8.78912 10.0477C8.29592 9.79916 7.69462 9.99751 7.44608 10.4907C7.19755 10.9839 7.39589 11.5852 7.88909 11.8337L8.78912 10.0477ZM9.26222 13.8166C9.42169 14.3453 9.97961 14.6447 10.5084 14.4852C11.0371 14.3258 11.3365 13.7679 11.177 13.2391L9.26222 13.8166ZM7.88909 11.8337C8.42819 12.1054 8.91514 12.6658 9.26222 13.8166L11.177 13.2391C10.7332 11.7676 9.98028 10.648 8.78912 10.0477L7.88909 11.8337Z" fill="#FA4F4F"/>
<path d="M12.5958 6.49462C12.1124 6.22742 11.504 6.40264 11.2368 6.88598C10.9696 7.36933 11.1448 7.97776 11.6281 8.24496L12.5958 6.49462ZM12.5926 9.96647C12.653 10.5154 13.147 10.9115 13.696 10.8511C14.245 10.7908 14.641 10.2968 14.5807 9.74781L12.5926 9.96647ZM11.6281 8.24496C11.7304 8.3015 11.9606 8.51232 12.193 8.89681C12.4149 9.2639 12.5588 9.65881 12.5926 9.96647L14.5807 9.74781C14.507 9.07811 14.2334 8.40613 13.9047 7.86228C13.5865 7.33583 13.1331 6.79165 12.5958 6.49462L11.6281 8.24496Z" fill="#FA4F4F"/>
<path d="M16.3847 3.88723C15.8765 3.67108 15.2892 3.90786 15.0731 4.41609C14.8569 4.92432 15.0937 5.51155 15.602 5.7277L16.3847 3.88723ZM16.1808 7.0646C16.1808 7.61689 16.6285 8.0646 17.1808 8.0646C17.7331 8.0646 18.1808 7.61689 18.1808 7.0646L16.1808 7.0646ZM15.602 5.7277C15.5929 5.72385 15.6352 5.74104 15.7125 5.82876C15.7866 5.91284 15.8681 6.03384 15.9439 6.18634C16.1023 6.50461 16.1808 6.84535 16.1808 7.0646L18.1808 7.0646C18.1808 6.47749 18.0018 5.83267 17.7346 5.29546C17.4815 4.78686 17.0458 4.16839 16.3847 3.88723L15.602 5.7277Z" fill="#FA4F4F"/>
<path d="M6.36885 14.0292C5.92638 13.6987 5.29975 13.7895 4.96924 14.232C4.63874 14.6745 4.7295 15.3011 5.17198 15.6316L6.36885 14.0292ZM5.90046 16.9582C6.03845 17.493 6.58384 17.8146 7.1186 17.6766C7.65337 17.5386 7.97502 16.9932 7.83702 16.4585L5.90046 16.9582ZM5.17198 15.6316C5.2188 15.6666 5.36106 15.8104 5.52752 16.0854C5.68419 16.3443 5.82168 16.6529 5.90046 16.9582L7.83702 16.4585C7.70342 15.9407 7.4825 15.4529 7.23849 15.0498C7.00426 14.6628 6.70354 14.2792 6.36885 14.0292L5.17198 15.6316Z" fill="#FA4F4F"/>
</svg>
