<svg width="22" height="22" fill="none" xmlns="http://www.w3.org/2000/svg"><rect y="20" width="22" height="2" rx="1" fill="#EBEBEB"/><rect y="16" width="22" height="2" rx="1" fill="#EBEBEB"/><rect y="12" width="22" height="2" rx="1" fill="#EBEBEB"/><rect x="1" y="11" width="2" height="11" rx="1" fill="#EBEBEB"/><rect x="19" y="11" width="2" height="11" rx="1" fill="#EBEBEB"/><path d="M5.639 11a2.8 2.8 0 01-2.807-2.794A2.8 2.8 0 015.639 5.41m7.197 1.384c.149-.306.343-.583.575-.824A3.125 3.125 0 0115.67 5c1.748 0 3.165 1.446 3.165 3.229A3.24 3.24 0 0117.296 11" stroke="#EBEBEB" stroke-width="2" stroke-linecap="round"/><path d="M11.133 11C8.298 11 6 8.761 6 6s2.298-5 5.133-5C13.396 1 15.317 2.427 16 4.407" stroke="#EBEBEB" stroke-width="2" stroke-linecap="round"/></svg>