<svg width="22" height="22" fill="none" xmlns="http://www.w3.org/2000/svg"><path fill-rule="evenodd" clip-rule="evenodd" d="M1.266.036a1 1 0 10-.531 1.928l1.99.549.183 1.925c0 .034.001.068.005.103l.958 10.137a1 1 0 00.996.906H17.92l-.132 1.398H5.175a1 1 0 100 2h13.52a1 1 0 00.998-.927.927.927 0 00.01-.076l1.029-10.896.004-.06.186-1.965a1 1 0 00-.963-1.094L4.826 3.475l-.173-1.83a.997.997 0 00-.344-.664.996.996 0 00-.4-.217L1.266.036zm16.84 13.548H5.782l-.766-8.101 13.814.446-.724 7.655z" fill="#333"/><circle cx="7.5" cy="19.5" r="1.5" stroke="#FA4F4F" stroke-width="2"/><circle cx="16.5" cy="19.5" r="1.5" stroke="#FA4F4F" stroke-width="2"/></svg>