<svg width="24" height="24" fill="none" xmlns="http://www.w3.org/2000/svg"><path d="M3.28 13.548c.112-1.798.193-3.073.382-4.038.184-.943.453-1.486.87-1.879.418-.392.977-.627 1.93-.752.975-.127 2.252-.129 4.054-.129h2.968c1.802 0 3.08.002 4.054.13.953.124 1.511.359 1.93.751.417.393.686.936.87 1.88.189.964.27 2.24.382 4.037.126 2.014.214 3.447.133 4.537-.08 1.07-.315 1.686-.742 2.14-.427.455-1.028.728-2.09.874-1.083.15-2.519.151-4.537.151h-2.968c-2.018 0-3.454-.002-4.538-.15-1.061-.147-1.662-.42-2.089-.875-.427-.454-.662-1.07-.742-2.14-.081-1.09.007-2.523.133-4.537z" stroke="#1B1B1B" stroke-width="2"/><path fill-rule="evenodd" clip-rule="evenodd" d="M7.852 9c.538 0 .88-.633.75-1.155a3.5 3.5 0 116.795 0c-.13.522.213 1.155.751 1.155a.615.615 0 00.593-.406 5 5 0 10-9.481 0c.084.25.327.406.592.406z" fill="#EB292F" stroke="#EB292F" stroke-width=".5"/><path d="M8.5 13a.5.5 0 100-1 .5.5 0 000 1zm7 0a.5.5 0 100-1 .5.5 0 000 1z" fill="#EB292F" stroke="#EB292F" stroke-width="2"/></svg>