<svg width="22" height="22" fill="none" xmlns="http://www.w3.org/2000/svg"><circle cx="11" cy="5.5" r="4.5" stroke="#333" stroke-width="2"/><path d="M4.857 14.89l-.426-.904.426.905zm12.286 0l-.426.906.426-.905zm-3.588-1.688l-.426.905.426-.905zm-5.11 0l-.426-.905.426.905zm4.684.905l3.588 1.689.852-1.81-3.588-1.689-.852 1.81zm-7.846 1.689l3.588-1.689-.852-1.81-3.588 1.689.852 1.81zM3.615 22h14.77v-2H3.615v2zm-.906-3.218a4.837 4.837 0 012.574-2.986l-.852-1.81a6.837 6.837 0 00-3.637 4.222l1.915.575zm14.008-2.986a4.837 4.837 0 012.574 2.986l1.915-.574a6.837 6.837 0 00-3.637-4.222l-.852 1.81zm2.574 2.986A.946.946 0 0118.385 20v2a2.946 2.946 0 002.821-3.792l-1.915.575zm-5.31-6.485a7 7 0 00-5.962 0l.852 1.81a5 5 0 014.258 0l.852-1.81zM.794 18.207A2.946 2.946 0 003.615 22v-2a.946.946 0 01-.906-1.218l-1.915-.574z" fill="#333"/><path stroke="#FA4F4F" stroke-width="2" stroke-linecap="round" d="M11.002 15.341V20"/></svg>