<svg width="143" height="220" fill="none" xmlns="http://www.w3.org/2000/svg"><path d="M65.987 37.889c-5.466-3.03-11.02-6.277-14.882-11.19-4.035-5.132-5.757-12.807-2.018-18.158 3.14-4.495 9.394-6.075 14.721-4.776 5.327 1.299 9.787 5 13.25 9.25-1.133-5.224 4.377-10.269 9.703-9.806 5.326.462 9.6 5.118 11.022 10.271 1.422 5.153.497 10.668-1.03 15.792a69.867 69.867 0 01-12.367 23.61 22.786 22.786 0 00-3.092-4.32c-4.205-4.624-9.84-7.643-15.306-10.673z" fill="#EB292F"/><path d="M84.884 53.133a69.295 69.295 0 0015.313-27.56c1.5-5.32 2.378-11.368.13-16.617-1.738-4.06-5.444-7.732-10.037-8.072-4.848-.359-10.23 4.13-9.191 9.263.078.384-.427.788-.726.423-3.88-4.736-9.214-9.099-15.57-9.526-5.661-.381-11.608 2.448-13.258 8.199-1.717 5.99 1.246 12.327 5.396 16.563 4.604 4.698 10.597 7.63 16.254 10.83 5.565 3.148 11.225 6.784 14.649 12.35a19.627 19.627 0 012.935 8.521c.269 3.127-.513 6.084-2.027 8.811-1.608 2.897-3.597 5.537-5.049 8.528a43.168 43.168 0 00-3.238 9.267 43.744 43.744 0 00-.028 19.399c2.668 11.64 10.454 21.885 20.816 27.779a43.005 43.005 0 003.856 1.938c.511.226.069.975-.438.751a44.638 44.638 0 01-23.762-25.711c-4.384-12.445-2.703-26.784 4.31-37.94 1.835-2.92 3.956-5.751 4.56-9.23.554-3.187-.128-6.512-1.474-9.42-2.883-6.227-8.596-10.276-14.366-13.617-5.77-3.34-11.933-6.232-16.822-10.865-4.352-4.124-7.563-10.009-6.81-16.174a11.839 11.839 0 013.697-7.362A13.928 13.928 0 0161.449.303c6.162-.868 11.937 2.055 16.329 6.187a36.53 36.53 0 013.21 3.465l-.727.423c-.937-4.633 2.746-8.89 7.058-10.061C92.01-.958 96.66 1.784 99.361 5.5c3.375 4.643 3.652 10.597 2.665 16.071-1.024 5.679-3.143 11.238-5.717 16.387A70.543 70.543 0 0185.5 53.747c-.376.416-.99-.2-.615-.614z" fill="#3F3D56"/><path d="M87.91 209.555l4.101 1.164 16.115-51.317-11.825-2.039-8.391 52.192zm48.138.295l4.056-.869-10.492-52.588-11.409 3.717 17.845 49.74z" fill="#FED7C6"/><path d="M92.852 219.524c-1.123.512-2.063-2.664-3.01-1.733-2.65 2.603-9.007 2.02-9.007 2.02a1.665 1.665 0 01-.984-.856 1.654 1.654 0 011.09-2.328l2.817-.705 4.425-7.781 4.822-.61.122.199a12.44 12.44 0 011.332 10.167c-.4 1.284-.947 1.325-1.607 1.627zm49.087-2.264c-1.011.709-2.516-2.242-3.277-1.154-2.13 3.045-8.486 3.632-8.486 3.632a1.65 1.65 0 01-1.402-1.266 1.655 1.655 0 01.924-1.883l2.642-1.208 2.928-8.458 4.629-1.482.156.174a12.429 12.429 0 013.168 9.752c-.159 1.336-.689 1.476-1.282 1.893zm-40.363-96.948c-2.16 3.321-4.253 6.675-5.179 10.493a211.18 211.18 0 00-4.786 28.392c7.504 4.305 14.013 6.776 20.373 7.202.295.019.59.033.886.044l2.318-13.087 1.849 12.943a29.684 29.684 0 002.754-.422c3.987-.799 8.046-2.433 12.383-4.942a66.232 66.232 0 001.938-18.933c-.357-8.52-2.283-15.815-4.149-21.673l-28.387-.017z" fill="#2F2E41"/><path d="M117.504 81.725l10.194-3.466c-3.688-3.61-5.194-7.574-3.67-12.029l-11.417 2.039c2.709 5.221 6.256 8.365 4.893 13.456z" fill="#FED7C6"/><path d="M101.577 120.312c9.272 7.376 18.713 8.226 28.386.017-3.899-12.244 4.056-23.757 2.897-32.448-.723-5.422-2.978-12.139-8.222-13.7l-5.632 1.72a11.935 11.935 0 00-8.068 8.425l-.666 2.593c-3.225 3.43-4.3 7.938-3.462 13.411-.707 1.553-.383 3.511-.058 5.473.307 1.865.614 3.734.034 5.255-1.247 3.27-3.255 6.248-5.209 9.254" fill="#E02627"/><path d="M115.465 72.958a9.174 9.174 0 01-9.174-9.174 9.175 9.175 0 119.174 9.174zm-31.503 43.063l6.427-2.104-.47-5.157-7.056-.157a3.813 3.813 0 00-3.74 2.749 3.801 3.801 0 003.214 4.832 3.807 3.807 0 001.625-.163z" fill="#FED7C6"/><path opacity=".2" d="M96.397 130.805c2.657-1.246 8.703-4.387 17.438-10.752 12.029-8.766 8.97-30.173 8.97-30.173l-16.053 15.922c.307 1.866.614 3.735.034 5.256-2.624 6.883-8.624 12.475-10.389 19.747z" fill="#000"/><path d="M89.165 115.568c8.703 1.928 15.824 3.085 21.611-1.019 9.178-10.674 14.394-21.39 12.442-32.182a5.232 5.232 0 00-3.798-4.097 5.263 5.263 0 00-6.279 3.175l-6.934 23.239-17.962 3.477.92 7.407z" fill="#E02627"/><path d="M102.806 138.605a4.496 4.496 0 004.383-3.517l.534-2.404-8.767-1.948-.534 2.404a4.49 4.49 0 004.384 5.465zm4.226-5.481l-.408 1.839a3.916 3.916 0 01-4.667 2.969 3.896 3.896 0 01-2.451-1.718 3.914 3.914 0 01-.518-2.948l.408-1.838 7.636 1.696z" fill="#3F3D56"/><path d="M106.324 59.95s-1.473-11.463 10.544-7.704c0 0 8.583-1.575 11.398 9.16l2.85 11.254-1.389-.756-.648 1.416-2.25.57-.964-1.912-.466 2.321-18.434 1.838s8.256-4.883 8.387-13.634l-1.572 1.662-7.456-4.216z" fill="#2F2E41"/></svg>