<svg width="68" height="200" fill="none" xmlns="http://www.w3.org/2000/svg"><path d="M19.552 29.247s-4.026 8.188-6.921 15.562c-2.895 7.373-3.393 14.204-.588 15.652 3.935 2.035 8.323 2.17 13.39-7.42 5.066-9.59 1.266-31.258-5.881-23.794z" fill="#2F2E41"/><path d="M41.22 178.799c-.045.543 1.583 9.726 1.493 10.405-.136.678 6.921 2.442 10.314-.588 0 0-.498-11.988-.498-13.798 0-1.764-10.992-1.085-11.309 3.981z" fill="#FED7C6"/><path d="M42.578 187.575s-.77 3.393-1.9 5.474c-1.131 2.081-7.374 7.916-6.695 9.907.678 1.99 6.423 2.171 10.857 1.99 4.433-.181 6.423-1.719 8.187-4.886 1.81-3.166.588-5.292.362-11.444 0 0-.136-1.041-.407-1.222 0 0-.905 1.583-1.945 1.719-1.04.091-2.081-2.397-4.614-2.669-2.534-.226-2.85 2.262-3.122 2.262-.316 0-.633-.407-.723-1.131z" fill="#2F2E41"/><path d="M38.461 197.301s3.167-1.357 9.047.859m-7.916-3.347s3.166-1.357 9.047.86" stroke="#fff" stroke-width="1.8" stroke-miterlimit="10" stroke-linecap="round" stroke-linejoin="round"/><path d="M18.602 177.216c-.045.543 1.584 9.726 1.493 10.404-.135.679 6.921 2.443 10.314-.588 0 0-.497-11.988-.497-13.797 0-1.764-11.038-1.086-11.31 3.981z" fill="#FED7C6"/><path d="M19.914 185.947s-.769 3.392-1.9 5.473c-1.13 2.081-7.373 7.917-6.695 9.907.679 1.991 6.424 2.171 10.857 1.991 4.433-.181 6.424-1.719 8.188-4.886 1.81-3.167.588-5.293.362-11.445 0 0-.136-1.04-.407-1.221 0 0-.905 1.583-1.946 1.719-1.04.09-2.08-2.398-4.614-2.669-2.533-.226-2.85 2.262-3.121 2.262-.317.045-.633-.362-.724-1.131z" fill="#2F2E41"/><path d="M15.843 195.718s3.166-1.357 9.047.859m-7.962-3.347s3.167-1.358 9.048.859" stroke="#fff" stroke-width="1.8" stroke-miterlimit="10" stroke-linecap="round" stroke-linejoin="round"/><path d="M61.44 79.596s1.358 7.916-2.532 26.508c-1.177 5.655-2.127 13.028-2.805 20.764-1.583 17.642-.226 35.646.588 42.748 1.176 10.178-4.026 12.124-9.636 12.576-5.609.452-7.69-2.126-7.961-4.976-.272-2.85-3.619-40.849-4.886-49.444-1.311-8.594-1.402-20.356-.995-22.075.407-1.719-4.478-1.357-2.443-22.618 1.99-21.352 29.042-9.138 30.67-3.483z" fill="#2F2E41"/><path d="M22.492 80.636s-6.785 29.042-7.6 38.089c-.814 9.048.86 53.425.815 56.094-.09 2.669 2.398 5.066 8.46 5.202 6.06.135 8.504-3.891 8.458-6.062-.135-7.238-.226-36.053.227-40.487.452-4.433 7.056-26.237 8.368-28.318 1.312-2.126 4.207-17.732-1.492-20.446-5.7-2.715-14.657-6.786-17.236-4.072z" fill="#2F2E41"/><path d="M31.042 22.688s11.58-.407 16.964-1.13c5.383-.724 15.425-.77 19.406 7.328 3.981 8.097-8.369 12.078-8.052 17.823.272 5.7 1.131 15.47 1.131 15.47s1.131 10.903 2.398 15.02c1.266 4.116-1.131 6.197-2.262 6.558-1.131.362-12.893 2.76-21.804 2.262-8.912-.497-16.195-2.533-16.828-4.523-.679-1.99.407-7.826 0-13.933s-1.583-16.783-1.583-20.854c0-4.072-1.99-14.385 0-18.638 1.99-4.252 6.785-5.247 10.63-5.383z" fill="#E02627"/><path d="M46.241 17.893s1.855.271 2.488 1.493c.407.769.905 2.171.86 3.619-.045 1.447-2.217 5.428-8.505 6.152-6.333.724-8.55-2.352-8.82-3.528-.272-1.177.18-4.343.633-4.886.407-.588 1.085-1.176 3.347-1.447 2.217-.362 9.274-1.674 9.997-1.403z" fill="#2F2E41"/><path d="M37.15 45.397s-1.855-1.945-2.805-3.393c-.95-1.448-2.217-3.03-3.257-3.619-1.04-.633-3.212-.995-3.8-1.312-.634-.316-1.267.815 0 1.855s.724 4.071 2.488 5.7c1.81 1.628 6.74 2.623 7.373.769z" fill="#FED7C6"/><path d="M23.985 18.617L1.141 17.124A1.073 1.073 0 00.01 18.345l5.61 34.47c.135.77.723 1.358 1.492 1.448l21.85 2.986c.678.09 1.266-.498 1.22-1.176L25.57 20.155c-.046-.86-.724-1.493-1.584-1.538z" fill="#fff"/><path d="M7.836 18.708l8.64.452c.317 0 .588-.271.543-.588l-.136-.905c-.045-.362-.362-.633-.678-.633l-8.64-.453c-.317 0-.589.272-.543.589l.135.904c.046.362.362.588.679.634z" fill="#2F2E41"/><path d="M58.23 53.63s-2.85-11.445-3.574-15.833c-.724-4.388 2.035-9.273 6.288-10.36 4.975-1.22 6.513 1.403 6.513 1.403s1.99 3.484 3.981 14.43c1.99 10.948 3.122 21.126-3.98 23.614-7.103 2.488-21.669-5.61-26.328-9.092-4.66-3.438-6.378-4.931-7.283-5.157-.905-.227-4.479.723-6.379-1.403-1.9-2.126-3.528-3.8-3.709-3.8-.18 0-4.704.679-5.474.09-.859-.678.408-1.356 1.312-1.492.86-.136 3.484-.995 3.484-.995s-2.036-.633-3.484-1.176c-1.447-.588-2.94-.86-2.85-1.629.09-.814.996-.678 1.9-.724.905-.045 2.127.227 2.127.227s-2.489-.679-3.122-1.403c-.678-.769-.09-1.357 1.222-1.221 1.04.09 2.488.452 2.488.452s-2.534-.226-2.353-1.357c.136-.769 2.398-.362 3.89-.18 1.493.18 3.393.542 5.022.95 1.085.27 2.08.587 2.76.904 1.583.769 5.563 4.569 6.197 5.338.633.769 8.595 2.035 15.109 3.483C58.5 50.101 62.3 51.323 64.29 53.178l-6.062.452z" fill="#FED7C6"/><path d="M35.52 53.63c1.132.814 2.85 2.171 5.565 4.162 4.66 3.438 19.225 11.535 26.327 9.092 7.057-2.488 5.926-12.666 3.981-23.613-1.99-10.947-3.98-14.43-3.98-14.43s-1.539-2.625-6.515-1.403c-4.207 1.04-7.011 5.926-6.288 10.36.453 2.758 1.765 8.368 2.67 12.122-1.584-.452-3.393-.86-5.474-1.311-4.614-.996-9.997-1.946-12.938-2.67.045.136.633 2.58-.497 4.886-1.04 2.352-2.85 2.805-2.85 2.805z" fill="#2F2E41"/><path d="M46.604 10.791s.135 5.79.497 9.41c.362 3.618-6.378 5.11-9.635 4.478-3.257-.634-3.755-1.629-3.755-1.629s.272-4.885 0-6.65c-.271-1.764 12.847-7.509 12.893-5.609z" fill="#FED7C6"/><path d="M33.801 21.738c.046-.723.046-1.673.046-2.623 2.76.135 5.202-2.398 7.192-4.479.543 4.343-3.212 7.148-7.238 7.102z" fill="#896068"/><path d="M28.464 3.1s-2.262-1.175-2.94-4.885c-.68-3.754.135-9.228 2.668-9.861 2.579-.679.77 7.147 2.488 8.595C32.4-1.65 28.464 1.065 28.464 3.1z" fill="#2F2E41"/><path d="M28.554-3.278s-.769 3.122-.497 7.69c.271 4.615-.634 12.395 4.388 14.657 5.02 2.262 11.67-.09 14.385-7.509 2.714-7.419 2.76-14.792-1.402-17.959-4.207-3.212-15.38-2.76-16.874 3.121z" fill="#FED7C6"/><path d="M46.287 5.634s-1.538-.498-1.584-3.257c0-2.805-1.492-5.112-4.478-4.297-2.986.814-7.147 3.12-9.59 3.076-2.895-.09-3.8-3.212-4.026-7.057-.226-3.89 1.04-6.243 2.533-5.836 1.493.407 2.76 1.674 4.614-.678 2.533-3.167 4.795-3.076 6.605-1.584 3.166 2.67 2.443 4.072 5.338 2.94 1.673-.678 2.85-.497 3.664 2.625.814 3.12.497 3.98 2.443 3.709 1.99-.271.723 10.042-2.443 12.35-.045 0-2.488-2.217-3.076-1.99zm-15.561.769c-.181.498-.272.996-.407 1.448-.136.452-.272.95-.408 1.312-.09.226-.226.543-.226.86 0 .316.045.678.272.904.407.498.995.633 1.538.588-.453-.271-.86-.588-.996-.905-.135-.316-.045-.678.181-1.085a3.96 3.96 0 00.317-1.584 8.4 8.4 0 00-.271-1.538z" fill="#2F2E41"/><path d="M35.114 2.468a.543.543 0 01-.588-.724c.135-.407.226-.77.678-.86.95-.226 2.986-.045 4.207.86 1.221.904.045 1.085-1.493.769a9.833 9.833 0 00-2.804-.045z" fill="#2F2E41"/><path d="M37.194 11.56c-2.473 0-4.478-2.086-4.478-4.659s2.005-4.66 4.478-4.66c2.474 0 4.479 2.087 4.479 4.66s-2.005 4.66-4.479 4.66zm-9.364-.407c-1.598 0-2.895-1.903-2.895-4.252 0-2.348 1.297-4.252 2.896-4.252 1.598 0 2.895 1.904 2.895 4.252 0 2.349-1.297 4.252-2.895 4.252z" stroke="#2F2E41" stroke-miterlimit="10" stroke-linecap="round" stroke-linejoin="round"/><path d="M30.635 5.951s.588-.814 2.172 0" stroke="#22272E" stroke-miterlimit="10" stroke-linecap="round" stroke-linejoin="round"/><path d="M41.492 5.59l5.383-.408M34.48 14.727s2.036-.136 3.076-2.126" stroke="#2F2E41" stroke-miterlimit="10" stroke-linecap="round" stroke-linejoin="round"/><path d="M36.516 8.62c-.408.045-.77-.272-.815-.724l-.045-.452c-.045-.408.272-.77.724-.815.407-.045.769.272.814.724l.045.452c.046.453-.271.77-.723.815zm-6.696.135c-.407.046-.768-.271-.814-.723l-.045-.453c-.045-.407.272-.769.724-.814.407-.045.769.271.814.724l.045.452a.828.828 0 01-.723.814z" fill="#2F2E41"/><path d="M46.468 5.77s1.311-2.262 3.076-1.674c1.764.588 1.719 3.302.86 4.93-1.087 2.082-3.575 2.715-4.886 2.489" fill="#FED7C6"/><path d="M49.59 7.398a1.29 1.29 0 00.09-.724c0-.135-.091-.271-.181-.407A.726.726 0 0049 6.041c-.317 0-.633.136-.814.362-.181.18-.317.407-.453.633-.226.407-.316.814-.452 1.176-.09.181-.136.317-.226.407-.09.091-.317.091-.543.091.136.18.362.362.678.317.317-.09.498-.272.68-.453.27-.407.451-.769.632-1.13.181-.363.362-.634.543-.68.045 0 .09-.044.136 0 .045 0 .09.046.136.137.09.045.18.27.271.497z" fill="#2F2E41"/><path d="M57.28 98.188s-5.293-2.262-5.293-9.952" stroke="#fff" stroke-miterlimit="10" stroke-linecap="round" stroke-linejoin="round"/></svg>