<svg width="24" height="24" fill="none" xmlns="http://www.w3.org/2000/svg"><mask id="a" fill="#fff"><path fill-rule="evenodd" clip-rule="evenodd" d="M12.04 23.487a7.148 7.148 0 01-.557.183c-4.229 1.192-8.75-1.719-10.1-6.503-1.35-4.783.984-9.629 5.213-10.821 1.856-.524 3.768-.257 5.444.612 1.676-.869 3.588-1.136 5.444-.612 4.228 1.192 6.562 6.038 5.213 10.822-1.35 4.783-5.872 7.694-10.1 6.502a7.148 7.148 0 01-.557-.183z"/></mask><path d="M12.04 23.487l.699-1.873-.7-.261-.698.26.699 1.874zm-.557.183l.543 1.924-.543-1.925zm-10.1-6.503l-1.925.543 1.925-.543zm5.213-10.82L6.053 4.42l.543 1.925zm5.444.612l-.92 1.775.92.477.92-.477-.92-1.775zm5.444-.612L16.94 8.27l.543-1.924zm5.213 10.822l-1.925-.543 1.925.543zm-10.1 6.502l-.543 1.924.543-1.925zm-1.256-2.056c-.13.048-.264.092-.401.13l1.086 3.85a9.12 9.12 0 00.713-.233l-1.398-3.747zm-.401.13c-2.95.833-6.518-1.169-7.632-5.12l-3.85 1.087c1.584 5.616 7.06 9.437 12.568 7.883l-1.086-3.85zm-7.632-5.12c-1.115-3.95.881-7.522 3.83-8.354L6.054 4.42C.545 5.976-2.127 12.095-.542 17.71l3.85-1.085zm3.83-8.354c1.32-.372 2.712-.195 3.981.463l1.841-3.55c-2.082-1.08-4.516-1.437-6.907-.762l1.086 3.85zm10.889-3.85c-2.392-.674-4.826-.317-6.908.762l1.841 3.551c1.27-.658 2.66-.835 3.98-.463l1.087-3.85zm6.595 13.29c1.584-5.616-1.087-11.735-6.595-13.29L16.94 8.27c2.949.832 4.945 4.404 3.83 8.355l3.85 1.085zm-12.568 7.884c5.508 1.554 10.983-2.267 12.568-7.884l-3.85-1.085c-1.115 3.95-4.683 5.952-7.632 5.12l-1.086 3.85zm-.713-.233c.233.087.47.165.713.233l1.086-3.85a5.146 5.146 0 01-.401-.13L11.34 25.36z" fill="#EB292F" mask="url(#a)"/><path d="M15.389 1.89A1 1 0 1014.135.331l1.254 1.557zm-2.52 5.693c-.213-.901-.137-3.554 2.52-5.694L14.135.332c-3.328 2.679-3.582 6.153-3.211 7.713l1.946-.462z" fill="#EB292F"/><path d="M5.635 16.084c-.672-2.383.49-4.797 2.597-5.39" stroke="#FA4F4F" stroke-width="2" stroke-linecap="round"/><path d="M10.216 1.138c.703.271.907.588.979.818.088.284.063.711-.168 1.312-.231.6-.499.934-.755 1.085-.208.122-.571.221-1.275-.05-.252-.097-.56-.321-.9-.688a8.174 8.174 0 01-.915-1.236 13.18 13.18 0 01-.433-.758c.248-.09.53-.185.83-.272a8.174 8.174 0 011.508-.303c.498-.045.876-.005 1.129.092z" stroke="#EB292F" stroke-width="2"/></svg>