<svg width="24" height="19" viewBox="0 0 24 19" fill="none" xmlns="http://www.w3.org/2000/svg">
<mask id="path-1-inside-1" fill="white">
<path fill-rule="evenodd" clip-rule="evenodd" d="M1.92472 2.05015C-0.641576 4.61644 -0.641572 8.77723 1.92472 11.3435L7.34586 16.7647C8.6309 18.0497 10.3157 18.6913 12 18.6894C13.6843 18.6913 15.3691 18.0497 16.6541 16.7647L22.0753 11.3435C24.6416 8.77723 24.6416 4.61644 22.0753 2.05015C19.509 -0.516147 15.3482 -0.516146 12.7819 2.05015L12 2.83205L11.2181 2.05015C8.6518 -0.516146 4.49102 -0.516147 1.92472 2.05015Z"/>
</mask>
<path d="M1.92472 11.3435L0.51051 12.7577H0.51051L1.92472 11.3435ZM1.92472 2.05015L0.510506 0.635935L1.92472 2.05015ZM7.34586 16.7647L8.76007 15.3504L7.34586 16.7647ZM12 18.6894L12.0023 16.6894L11.9977 16.6894L12 18.6894ZM16.6541 16.7647L15.2399 15.3504L15.2399 15.3504L16.6541 16.7647ZM22.0753 11.3435L23.4895 12.7577L22.0753 11.3435ZM22.0753 2.05015L23.4895 0.635935L22.0753 2.05015ZM12.7819 2.05015L11.3677 0.635936L12.7819 2.05015ZM12 2.83205L10.5858 4.24626L12 5.66048L13.4142 4.24626L12 2.83205ZM11.2181 2.05015L12.6323 0.635936L11.2181 2.05015ZM3.33894 9.92932C1.55369 8.14407 1.55369 5.24961 3.33893 3.46436L0.510506 0.635935C-2.83684 3.98328 -2.83683 9.4104 0.51051 12.7577L3.33894 9.92932ZM8.76007 15.3504L3.33894 9.92932L0.51051 12.7577L5.93164 18.1789L8.76007 15.3504ZM11.9977 16.6894C10.823 16.6907 9.65439 16.2448 8.76007 15.3504L5.93164 18.1789C7.60741 19.8546 9.80852 20.6918 12.0023 20.6894L11.9977 16.6894ZM11.9977 20.6894C14.1915 20.6918 16.3926 19.8546 18.0684 18.1789L15.2399 15.3504C14.3456 16.2448 13.177 16.6907 12.0023 16.6894L11.9977 20.6894ZM18.0684 18.1789L23.4895 12.7577L20.6611 9.92932L15.2399 15.3504L18.0684 18.1789ZM23.4895 12.7577C26.8368 9.4104 26.8368 3.98328 23.4895 0.635935L20.6611 3.46436C22.4463 5.24961 22.4463 8.14407 20.6611 9.92932L23.4895 12.7577ZM23.4895 0.635935C20.1421 -2.71141 14.715 -2.71141 11.3677 0.635936L14.1961 3.46436C15.9814 1.67912 18.8758 1.67912 20.6611 3.46436L23.4895 0.635935ZM11.3677 0.635936L10.5858 1.41784L13.4142 4.24626L14.1961 3.46436L11.3677 0.635936ZM9.80388 3.46436L10.5858 4.24626L13.4142 1.41784L12.6323 0.635936L9.80388 3.46436ZM3.33893 3.46436C5.12418 1.67912 8.01864 1.67912 9.80388 3.46436L12.6323 0.635936C9.28497 -2.71141 3.85785 -2.71141 0.510506 0.635935L3.33893 3.46436Z" fill="#333333" mask="url(#path-1-inside-1)"/>
</svg>
