<svg width="22" height="22" viewBox="0 0 22 22" fill="none" xmlns="http://www.w3.org/2000/svg">
<path fill-rule="evenodd" clip-rule="evenodd" d="M0.938167 0.938157C0.547643 1.32868 0.547643 1.96185 0.938167 2.35237L9.70137 11.1156L0.938157 19.8788C0.547633 20.2693 0.547632 20.9025 0.938157 21.293C1.32868 21.6835 1.96185 21.6835 2.35237 21.293L11.1156 12.5298L19.8788 21.293C20.2693 21.6835 20.9025 21.6835 21.293 21.293C21.6835 20.9025 21.6835 20.2693 21.293 19.8788L12.5298 11.1156L21.293 2.35238C21.6835 1.96185 21.6835 1.32869 21.293 0.938164C20.9025 0.547639 20.2693 0.547639 19.8788 0.938164L11.1156 9.70136L2.35238 0.938157C1.96186 0.547633 1.32869 0.547633 0.938167 0.938157Z" fill="#333333"/>
</svg>
