<svg width="22" height="22" viewBox="0 0 22 22" fill="none" xmlns="http://www.w3.org/2000/svg">
<path fill-rule="evenodd" clip-rule="evenodd" d="M1.26577 0.0361459C0.733307 -0.110495 0.182786 0.202275 0.0361459 0.734736C-0.110495 1.2672 0.202275 1.81772 0.734736 1.96436L2.72592 2.51273L2.90799 4.43799C2.90777 4.47182 2.90925 4.50603 2.91251 4.54053L3.87137 14.6777C3.91994 15.1912 4.35112 15.5836 4.86693 15.5836H17.9203L17.7883 16.982L5.17525 16.982C4.62296 16.982 4.17525 17.4297 4.17525 17.982C4.17525 18.5343 4.62296 18.982 5.17525 18.982L18.6955 18.982C19.2231 18.982 19.6553 18.5734 19.6929 18.0553C19.6972 18.0301 19.7006 18.0045 19.7031 17.9786L20.732 7.08303C20.7339 7.06265 20.7352 7.04236 20.7359 7.02218L20.9217 5.05812C20.9761 4.48401 20.5348 3.98306 19.9585 3.96444L4.82589 3.47549L4.65286 1.64585C4.62748 1.37747 4.49824 1.14394 4.30865 0.98122C4.19746 0.88206 4.06233 0.806322 3.90897 0.764087L1.26577 0.0361459ZM18.1061 13.5836H5.78184L5.01572 5.48267L18.8304 5.92904L18.1061 13.5836Z" fill="#333333"/>
<circle cx="7.5" cy="19.5" r="1.5" stroke="#FA4F4F" stroke-width="2"/>
<circle cx="16.5" cy="19.5" r="1.5" stroke="#FA4F4F" stroke-width="2"/>
</svg>
