<svg width="16" height="16" viewBox="0 0 16 16" fill="none" xmlns="http://www.w3.org/2000/svg">
<path d="M13 6C13 8.88112 11.861 11.1667 10.5955 12.7412C9.96206 13.5294 9.30699 14.126 8.77028 14.5173C8.50107 14.7136 8.27457 14.8487 8.10727 14.9301C8.0628 14.9518 8.02725 14.9673 8 14.9784C7.97275 14.9673 7.9372 14.9518 7.89273 14.9301C7.72543 14.8487 7.49893 14.7136 7.22972 14.5173C6.69301 14.126 6.03794 13.5294 5.40445 12.7412C4.13899 11.1667 3 8.88112 3 6C3 3.23858 5.23858 1 8 1C10.7614 1 13 3.23858 13 6Z" stroke="#4F4F4F" stroke-width="2"/>
<circle cx="8" cy="6" r="2" fill="#EB292F"/>
</svg>
