<svg width="24" height="24" viewBox="0 0 24 24" fill="none" xmlns="http://www.w3.org/2000/svg">
<path d="M3.27971 13.5478C3.39206 11.7501 3.47326 10.4751 3.66153 9.51034C3.84566 8.56678 4.11454 8.02398 4.53252 7.63131C4.9505 7.23864 5.50901 7.00414 6.46222 6.87923C7.43684 6.75151 8.71443 6.75 10.5156 6.75H13.4844C15.2855 6.75 16.5631 6.75151 17.5378 6.87923C18.491 7.00414 19.0495 7.23864 19.4675 7.63131C19.8854 8.02398 20.1543 8.56678 20.3385 9.51034C20.5267 10.4751 20.6079 11.7501 20.7203 13.5478C20.8461 15.5618 20.9341 16.9951 20.8529 18.0854C20.7734 19.1541 20.5379 19.7708 20.1109 20.2253C19.6839 20.6798 19.0831 20.9533 18.0215 21.0993C16.9384 21.2483 15.5024 21.25 13.4844 21.25H10.5156C8.49762 21.25 7.06161 21.2483 5.97848 21.0993C4.91685 20.9533 4.31606 20.6798 3.8891 20.2253C3.46213 19.7708 3.22657 19.1541 3.14705 18.0854C3.06592 16.9951 3.15383 15.5618 3.27971 13.5478Z" stroke="#1B1B1B" stroke-width="2"/>
<path fill-rule="evenodd" clip-rule="evenodd" d="M7.85158 9C8.38955 9 8.73211 8.3671 8.60267 7.84493C8.53559 7.57434 8.5 7.29133 8.5 7C8.5 5.067 10.067 3.5 12 3.5C13.933 3.5 15.5 5.067 15.5 7C15.5 7.29133 15.4644 7.57434 15.3973 7.84493C15.2679 8.3671 15.6105 9 16.1484 9C16.413 9 16.6563 8.84454 16.7406 8.59377C16.9088 8.0932 17 7.55725 17 7C17 4.23858 14.7614 2 12 2C9.23858 2 7 4.23858 7 7C7 7.55725 7.09116 8.0932 7.25938 8.59377C7.34365 8.84454 7.58703 9 7.85158 9Z" fill="#EB292F" stroke="#EB292F" stroke-width="0.5"/>
<path d="M8.5 13C8.77614 13 9 12.7761 9 12.5C9 12.2239 8.77614 12 8.5 12C8.22386 12 8 12.2239 8 12.5C8 12.7761 8.22386 13 8.5 13Z" fill="#EB292F" stroke="#EB292F" stroke-width="2"/>
<path d="M15.5 13C15.7761 13 16 12.7761 16 12.5C16 12.2239 15.7761 12 15.5 12C15.2239 12 15 12.2239 15 12.5C15 12.7761 15.2239 13 15.5 13Z" fill="#EB292F" stroke="#EB292F" stroke-width="2"/>
</svg>
