<svg width="22" height="22" viewBox="0 0 22 22" fill="none" xmlns="http://www.w3.org/2000/svg">
<circle cx="11" cy="5.5" r="4.5" stroke="#333333" stroke-width="2"/>
<path d="M4.85705 14.8908L4.43126 13.986L4.85705 14.8908ZM17.1429 14.8908L16.7171 15.7956L17.1429 14.8908ZM13.5548 13.2023L13.129 14.1071L13.5548 13.2023ZM8.44522 13.2023L8.01942 12.2974L8.44522 13.2023ZM13.129 14.1071L16.7171 15.7956L17.5687 13.986L13.9806 12.2974L13.129 14.1071ZM5.28285 15.7956L8.87101 14.1071L8.01942 12.2974L4.43126 13.986L5.28285 15.7956ZM3.61515 22H18.3848V20H3.61515V22ZM2.70928 18.7825C3.10406 17.4666 4.03976 16.3806 5.28285 15.7956L4.43126 13.986C2.6742 14.8128 1.35163 16.3478 0.793632 18.2078L2.70928 18.7825ZM16.7171 15.7956C17.9602 16.3806 18.8959 17.4666 19.2907 18.7825L21.2064 18.2078C20.6484 16.3478 19.3258 14.8128 17.5687 13.986L16.7171 15.7956ZM19.2907 18.7825C19.4728 19.3893 19.0184 20 18.3848 20V22C20.3581 22 21.7734 20.0978 21.2064 18.2078L19.2907 18.7825ZM13.9806 12.2974C12.0928 11.4091 9.90718 11.4091 8.01942 12.2974L8.87101 14.1071C10.2194 13.4725 11.7806 13.4725 13.129 14.1071L13.9806 12.2974ZM0.793632 18.2078C0.226623 20.0978 1.6419 22 3.61515 22V20C2.98163 20 2.52724 19.3893 2.70928 18.7825L0.793632 18.2078Z" fill="#333333"/>
<line x1="11.002" y1="15.3408" x2="11.002" y2="20" stroke="#FA4F4F" stroke-width="2" stroke-linecap="round"/>
</svg>
