<svg width="68" height="200" viewBox="0 0 68 200" fill="none" xmlns="http://www.w3.org/2000/svg">
<path d="M19.552 29.2473C19.552 29.2473 15.526 37.4351 12.6309 44.8087C9.73574 52.1822 9.23815 59.0129 12.0428 60.4605C15.9784 62.4961 20.3663 62.6318 25.4328 53.0417C30.4993 43.4516 26.6994 21.7833 19.552 29.2473Z" fill="#2F2E41"/>
<path d="M41.2202 178.799C41.1749 179.342 42.8034 188.525 42.7129 189.204C42.5772 189.882 49.6341 191.646 53.0269 188.616C53.0269 188.616 52.5293 176.628 52.5293 174.818C52.5293 173.054 41.5368 173.733 41.2202 178.799Z" fill="#FED7C6"/>
<path d="M42.5777 187.575C42.5777 187.575 41.8087 190.968 40.6777 193.049C39.5468 195.13 33.3042 200.965 33.9828 202.956C34.6613 204.946 40.4063 205.127 44.8395 204.946C49.2727 204.765 51.2631 203.227 53.0273 200.06C54.8367 196.894 53.6154 194.768 53.3892 188.616C53.3892 188.616 53.2535 187.575 52.9821 187.394C52.9821 187.394 52.0773 188.977 51.0369 189.113C49.9965 189.204 48.956 186.716 46.4228 186.444C43.8895 186.218 43.5729 188.706 43.3015 188.706C42.9848 188.706 42.6682 188.299 42.5777 187.575Z" fill="#2F2E41"/>
<path d="M38.461 197.301C38.461 197.301 41.6276 195.944 47.5083 198.16" stroke="white" stroke-width="1.8" stroke-miterlimit="10" stroke-linecap="round" stroke-linejoin="round"/>
<path d="M39.5919 194.813C39.5919 194.813 42.7584 193.456 48.6392 195.673" stroke="white" stroke-width="1.8" stroke-miterlimit="10" stroke-linecap="round" stroke-linejoin="round"/>
<path d="M18.6025 177.216C18.5572 177.759 20.1857 186.942 20.0953 187.62C19.9596 188.299 27.0164 190.063 30.4092 187.032C30.4092 187.032 29.9116 175.044 29.9116 173.235C29.9116 171.471 18.8739 172.149 18.6025 177.216Z" fill="#FED7C6"/>
<path d="M19.9141 185.947C19.9141 185.947 19.1451 189.339 18.0142 191.42C16.8832 193.501 10.6406 199.337 11.3192 201.327C11.9977 203.318 17.7427 203.498 22.1759 203.318C26.6091 203.137 28.5995 201.599 30.3637 198.432C32.1732 195.265 30.9518 193.139 30.7256 186.987C30.7256 186.987 30.5899 185.947 30.3185 185.766C30.3185 185.766 29.4137 187.349 28.3733 187.485C27.3329 187.575 26.2924 185.087 23.7592 184.816C21.226 184.59 20.9093 187.078 20.6379 187.078C20.3212 187.123 20.0046 186.716 19.9141 185.947Z" fill="#2F2E41"/>
<path d="M15.8428 195.718C15.8428 195.718 19.0094 194.361 24.8901 196.577" stroke="white" stroke-width="1.8" stroke-miterlimit="10" stroke-linecap="round" stroke-linejoin="round"/>
<path d="M16.9283 193.23C16.9283 193.23 20.0948 191.872 25.9756 194.089" stroke="white" stroke-width="1.8" stroke-miterlimit="10" stroke-linecap="round" stroke-linejoin="round"/>
<path d="M61.4407 79.5956C61.4407 79.5956 62.7978 87.512 58.9075 106.104C57.7313 111.759 56.7814 119.132 56.1028 126.868C54.5196 144.51 55.8766 162.514 56.6909 169.616C57.867 179.794 52.6649 181.74 47.0555 182.192C41.4462 182.644 39.3653 180.066 39.0939 177.216C38.8225 174.366 35.475 136.367 34.2084 127.772C32.8965 119.178 32.8061 107.416 33.2132 105.697C33.6203 103.978 28.7348 104.34 30.7704 83.0788C32.7608 61.7272 59.8122 73.9411 61.4407 79.5956Z" fill="#2F2E41"/>
<path d="M22.4924 80.6363C22.4924 80.6363 15.7069 109.678 14.8927 118.725C14.0784 127.773 15.7522 172.15 15.7069 174.819C15.6165 177.488 18.1045 179.885 24.1662 180.021C30.2278 180.156 32.6706 176.13 32.6254 173.959C32.4897 166.721 32.3992 137.906 32.8516 133.472C33.3039 129.039 39.9085 107.235 41.2203 105.154C42.5322 103.028 45.4273 87.4218 39.7275 84.7076C34.0277 81.9934 25.0709 77.9221 22.4924 80.6363Z" fill="#2F2E41"/>
<path d="M31.0422 22.6883C31.0422 22.6883 42.6227 22.2811 48.0059 21.5573C53.389 20.8336 63.4315 20.7883 67.4123 28.8857C71.3931 36.983 59.0435 40.9638 59.3602 46.7088C59.6316 52.4086 60.4911 62.1797 60.4911 62.1797C60.4911 62.1797 61.622 73.0817 62.8887 77.1982C64.1553 81.3147 61.7577 83.3956 60.6268 83.7575C59.4959 84.1194 47.7344 86.5169 38.8229 86.0193C29.9113 85.5217 22.6282 83.486 21.9949 81.4956C21.3164 79.5052 22.402 73.6697 21.9949 67.5628C21.5878 61.4559 20.4116 50.7801 20.4116 46.7088C20.4116 42.6375 18.4212 32.3236 20.4116 28.0714C22.402 23.8192 27.1971 22.824 31.0422 22.6883Z" fill="#E02627"/>
<path d="M46.2414 17.8931C46.2414 17.8931 48.0961 18.1645 48.7294 19.3859C49.1365 20.155 49.6342 21.5573 49.5889 23.0048C49.5437 24.4524 47.3723 28.4332 41.0845 29.157C34.7514 29.8808 32.5348 26.8047 32.2634 25.6286C31.9919 24.4524 32.4443 21.2859 32.8967 20.743C33.3038 20.155 33.9823 19.5669 36.2442 19.2955C38.4608 18.9336 45.5176 17.6217 46.2414 17.8931Z" fill="#2F2E41"/>
<path d="M37.1494 45.3967C37.1494 45.3967 35.2947 43.4515 34.3447 42.004C33.3948 40.5564 32.1282 38.9731 31.0877 38.3851C30.0473 37.7517 27.8759 37.3899 27.2879 37.0732C26.6545 36.7566 26.0212 37.8875 27.2879 38.9279C28.5545 39.9683 28.0116 42.9992 29.7759 44.6277C31.5853 46.2562 36.5161 47.2514 37.1494 45.3967Z" fill="#FED7C6"/>
<path d="M23.9852 18.6168L1.14081 17.124C0.462267 17.0788 -0.0805702 17.6669 0.00990295 18.3454L5.61922 52.8156C5.75493 53.5846 6.343 54.1727 7.11202 54.2632L28.9612 57.2488C29.6398 57.3392 30.2278 56.7512 30.1826 56.0726L25.5685 20.1549C25.5233 19.2954 24.8447 18.6621 23.9852 18.6168Z" fill="white"/>
<path d="M7.83597 18.7077L16.4761 19.16C16.7928 19.16 17.0642 18.8886 17.019 18.5719L16.8833 17.6672C16.838 17.3053 16.5214 17.0339 16.2047 17.0339L7.56454 16.5815C7.24789 16.5815 6.97648 16.853 7.02172 17.1696L7.15742 18.0743C7.20266 18.4362 7.51931 18.6624 7.83597 18.7077Z" fill="#2F2E41"/>
<path d="M58.2293 53.6298C58.2293 53.6298 55.3794 42.185 54.6556 37.7971C53.9318 33.4091 56.6912 28.5236 60.9435 27.4379C65.9195 26.2165 67.4575 28.8402 67.4575 28.8402C67.4575 28.8402 69.4479 32.3235 71.4383 43.2707C73.4287 54.2179 74.5597 64.3961 67.4575 66.8841C60.3554 69.3721 45.7893 61.2748 41.1299 57.7916C36.4706 54.3536 34.7516 52.8608 33.8468 52.6346C32.9421 52.4084 29.3684 53.3584 27.4685 51.2323C25.5686 49.1062 23.9401 47.4324 23.7591 47.4324C23.5782 47.4324 19.0545 48.111 18.2855 47.5229C17.426 46.8444 18.6926 46.1658 19.5974 46.0301C20.4569 45.8944 23.0806 45.0349 23.0806 45.0349C23.0806 45.0349 21.0449 44.4016 19.5974 43.8588C18.1498 43.2707 16.657 42.9993 16.7475 42.2302C16.8379 41.416 17.7427 41.5517 18.6474 41.5064C19.5521 41.4612 20.7735 41.7326 20.7735 41.7326C20.7735 41.7326 18.2855 41.0541 17.6522 40.3303C16.9737 39.5613 17.5617 38.9732 18.8736 39.1089C19.914 39.1994 21.3616 39.5613 21.3616 39.5613C21.3616 39.5613 18.8283 39.3351 19.0093 38.2042C19.145 37.4352 21.4068 37.8423 22.8996 38.0232C24.3924 38.2042 26.2924 38.5661 27.9209 38.9732C29.0065 39.2446 30.0017 39.5613 30.6803 39.8779C32.2636 40.647 36.2444 44.4468 36.8777 45.2158C37.511 45.9849 45.4726 47.2515 51.9867 48.6991C58.5007 50.1014 62.3006 51.3228 64.291 53.1775L58.2293 53.6298Z" fill="#FED7C6"/>
<path d="M35.5207 53.6298C36.6516 54.4441 38.3706 55.8012 41.0847 57.7916C45.7441 61.2295 60.3102 69.3269 67.4124 66.8841C74.4693 64.3961 73.3383 54.2179 71.3932 43.2707C69.4028 32.3235 67.4124 28.8402 67.4124 28.8402C67.4124 28.8402 65.8743 26.2165 60.8983 27.4379C56.6913 28.4784 53.8867 33.3639 54.6104 37.7971C55.0628 40.5565 56.3747 46.1658 57.2794 49.9204C55.6961 49.4681 53.8867 49.0609 51.8058 48.6086C47.1917 47.6134 41.8085 46.6634 38.8682 45.9396C38.9134 46.0753 39.5015 48.5181 38.3706 50.8252C37.3301 53.1775 35.5207 53.6298 35.5207 53.6298Z" fill="#2F2E41"/>
<path d="M46.6036 10.791C46.6036 10.791 46.7393 16.5813 47.1012 20.2002C47.4631 23.8191 40.7229 25.3119 37.4659 24.6786C34.2088 24.0453 33.7112 23.0501 33.7112 23.0501C33.7112 23.0501 33.9826 18.1646 33.7112 16.4003C33.4398 14.6361 46.5584 8.89108 46.6036 10.791Z" fill="#FED7C6"/>
<path d="M33.8015 21.7384C33.8467 21.0146 33.8467 20.0646 33.8467 19.1146C36.6061 19.2503 39.0489 16.7171 41.0393 14.6362C41.5821 18.9789 37.8275 21.7836 33.8015 21.7384Z" fill="#896068"/>
<path d="M28.4636 3.1007C28.4636 3.1007 26.2018 1.92455 25.5232 -1.78484C24.8447 -5.53947 25.6589 -11.0131 28.1922 -11.6464C30.7707 -12.3249 28.9612 -4.49903 30.6802 -3.05146C32.3992 -1.64913 28.4636 1.06506 28.4636 3.1007Z" fill="#2F2E41"/>
<path d="M28.5543 -3.27759C28.5543 -3.27759 27.7853 -0.156277 28.0567 4.41261C28.3281 9.02672 27.4234 16.8074 32.4446 19.0692C37.4659 21.331 44.1156 18.9787 46.8298 11.56C49.544 4.14119 49.5892 -3.23235 45.4275 -6.3989C41.2205 -9.61069 30.0471 -9.15833 28.5543 -3.27759Z" fill="#FED7C6"/>
<path d="M46.2867 5.63408C46.2867 5.63408 44.7486 5.13648 44.7034 2.37705C44.7034 -0.427606 43.2106 -2.73466 40.225 -1.92041C37.2394 -1.10615 33.0776 1.20091 30.6348 1.15567C27.7397 1.0652 26.835 -2.05611 26.6088 -5.90121C26.3826 -9.79155 27.6492 -12.1438 29.142 -11.7367C30.6348 -11.3296 31.9015 -10.063 33.7562 -12.4153C36.2894 -15.5818 38.5512 -15.4913 40.3607 -13.9985C43.5272 -11.3296 42.8035 -9.92726 45.6986 -11.0582C47.3723 -11.7367 48.5485 -11.5558 49.3627 -8.43445C50.177 -5.31314 49.8603 -4.45365 51.8055 -4.72507C53.7959 -4.99649 52.5293 5.31743 49.3627 7.62449C49.3175 7.62449 46.8747 5.4079 46.2867 5.63408Z" fill="#2F2E41"/>
<path d="M30.7256 6.40332C30.5447 6.90092 30.4542 7.39852 30.3185 7.85089C30.1828 8.30325 30.0471 8.80085 29.9114 9.16274C29.8209 9.38892 29.6852 9.70558 29.6852 10.0222C29.6852 10.3389 29.7304 10.7008 29.9566 10.927C30.3637 11.4246 30.9518 11.5603 31.4946 11.515C31.0423 11.2436 30.6351 10.927 30.4994 10.6103C30.3637 10.2937 30.4542 9.93176 30.6804 9.52463C30.9065 8.9818 30.997 8.48419 30.997 7.94136C30.9518 7.39852 30.8613 6.90092 30.7256 6.40332Z" fill="#2F2E41"/>
<path d="M35.1136 2.46754C34.7065 2.51278 34.3898 2.15088 34.5256 1.74375C34.6613 1.33663 34.7517 0.974737 35.2041 0.884264C36.1541 0.658081 38.1897 0.839024 39.4111 1.74375C40.6325 2.64848 39.4563 2.82943 37.9183 2.51277C36.8326 2.33183 35.8374 2.37707 35.1136 2.46754Z" fill="#2F2E41"/>
<path d="M37.1944 11.5604C34.7211 11.5604 32.716 9.47434 32.716 6.90105C32.716 4.32776 34.7211 2.2417 37.1944 2.2417C39.6678 2.2417 41.6729 4.32776 41.6729 6.90105C41.6729 9.47434 39.6678 11.5604 37.1944 11.5604Z" stroke="#2F2E41" stroke-miterlimit="10" stroke-linecap="round" stroke-linejoin="round"/>
<path d="M27.8305 11.1534C26.2315 11.1534 24.9353 9.24959 24.9353 6.90115C24.9353 4.55271 26.2315 2.64893 27.8305 2.64893C29.4294 2.64893 30.7256 4.55271 30.7256 6.90115C30.7256 9.24959 29.4294 11.1534 27.8305 11.1534Z" stroke="#2F2E41" stroke-miterlimit="10" stroke-linecap="round" stroke-linejoin="round"/>
<path d="M30.6353 5.95125C30.6353 5.95125 31.2234 5.13699 32.8066 5.95125" stroke="#22272E" stroke-miterlimit="10" stroke-linecap="round" stroke-linejoin="round"/>
<path d="M41.4919 5.58925L46.875 5.18213" stroke="#2F2E41" stroke-miterlimit="10" stroke-linecap="round" stroke-linejoin="round"/>
<path d="M34.4801 14.7267C34.4801 14.7267 36.5157 14.591 37.5562 12.6006" stroke="#2F2E41" stroke-miterlimit="10" stroke-linecap="round" stroke-linejoin="round"/>
<path d="M36.5156 8.6197C36.1084 8.66494 35.7466 8.34828 35.7013 7.89592L35.6561 7.44356C35.6108 7.03643 35.9275 6.67453 36.3799 6.6293C36.787 6.58406 37.1489 6.90071 37.1941 7.35308L37.2394 7.80544C37.2846 8.25781 36.9679 8.57446 36.5156 8.6197Z" fill="#2F2E41"/>
<path d="M29.8206 8.75544C29.4135 8.80068 29.0516 8.48402 29.0064 8.03166L28.9612 7.57929C28.9159 7.17216 29.2326 6.81028 29.6849 6.76504C30.0921 6.7198 30.454 7.03645 30.4992 7.48882L30.5444 7.94118C30.5444 8.34831 30.2278 8.7102 29.8206 8.75544Z" fill="#2F2E41"/>
<path d="M46.4675 5.76987C46.4675 5.76987 47.7794 3.50805 49.5436 4.09613C51.3079 4.6842 51.2626 7.39839 50.4031 9.0269C49.3174 11.1078 46.8294 11.7411 45.5176 11.5149" fill="#FED7C6"/>
<path d="M49.5891 7.39811C49.6795 7.17193 49.7248 6.94574 49.6795 6.67432C49.6795 6.53861 49.589 6.40291 49.4986 6.2672C49.3629 6.13149 49.1819 6.04102 49.001 6.04102C48.6843 6.04102 48.3677 6.17673 48.1867 6.40291C48.0058 6.58385 47.8701 6.81003 47.7344 7.03622C47.5082 7.44334 47.4177 7.85048 47.282 8.21237C47.1915 8.39331 47.1463 8.52902 47.0558 8.61949C46.9653 8.70996 46.7391 8.70996 46.513 8.70996C46.6487 8.89091 46.8749 9.07186 47.1915 9.02662C47.5082 8.93615 47.6891 8.75521 47.8701 8.57426C48.1415 8.16713 48.3224 7.80524 48.5034 7.44335C48.6843 7.08146 48.8653 6.81004 49.0462 6.7648C49.0914 6.7648 49.1367 6.71957 49.1819 6.7648C49.2272 6.7648 49.2724 6.81003 49.3176 6.90051C49.4081 6.94574 49.4986 7.17193 49.5891 7.39811Z" fill="#2F2E41"/>
<path d="M57.2793 98.1879C57.2793 98.1879 51.9866 95.926 51.9866 88.2358" stroke="white" stroke-miterlimit="10" stroke-linecap="round" stroke-linejoin="round"/>
</svg>
