<svg width="143" height="220" viewBox="0 0 143 220" fill="none" xmlns="http://www.w3.org/2000/svg">
<path d="M65.9875 37.8888C60.5206 34.859 54.9676 31.6122 51.1047 26.6985C47.0704 21.5669 45.3483 13.8917 49.0871 8.5409C52.2276 4.04625 58.4814 2.4659 63.8085 3.76483C69.1355 5.06376 73.5952 8.76448 77.0588 13.0151C75.9255 7.79064 81.4355 2.74608 86.7615 3.20876C92.0874 3.67144 96.3608 8.32655 97.7828 13.48C99.2049 18.6334 98.2796 24.1484 96.7537 29.272C94.1844 37.8629 89.9854 45.8789 84.3859 52.8825C83.5273 51.327 82.4896 49.8773 81.2941 48.5628C77.0893 43.9383 71.4543 40.9187 65.9875 37.8888Z" fill="#EB292F"/>
<path d="M84.8844 53.1326C92.0384 45.2448 97.2781 35.8142 100.197 25.5731C101.697 20.2533 102.575 14.2048 100.327 8.9563C98.5888 4.89689 94.8832 1.22402 90.2897 0.883992C85.442 0.52516 80.0606 5.01414 81.099 10.1472C81.1766 10.5306 80.6717 10.935 80.3727 10.57C76.4925 5.83399 71.1588 1.47142 64.8028 1.04377C59.1415 0.662862 53.1945 3.49189 51.5455 9.24286C49.828 15.2329 52.7913 21.57 56.9415 25.8058C61.5452 30.5045 67.5382 33.4355 73.1945 36.6355C78.7599 39.7842 84.4204 43.42 87.8435 48.9857C89.4698 51.56 90.4748 54.4774 90.7791 57.5071C91.0479 60.6343 90.2656 63.5911 88.7517 66.3181C87.1437 69.2146 85.1551 71.8551 83.703 74.8459C82.2749 77.8017 81.1886 80.9108 80.4652 84.1129C79.004 90.4956 78.9944 97.1249 80.437 103.512C83.1054 115.152 90.8911 125.397 101.253 131.291C102.505 132.001 103.792 132.648 105.109 133.229C105.62 133.455 105.178 134.204 104.671 133.98C99.1818 131.517 94.2477 127.969 90.1644 123.551C86.0811 119.132 82.9331 113.934 80.9093 108.269C76.5255 95.824 78.2061 81.4851 85.219 70.3292C87.0544 67.4095 89.1746 64.578 89.779 61.0996C90.3328 57.912 89.6507 54.5869 88.3048 51.6791C85.4225 45.4516 79.7095 41.4035 73.9387 38.0625C68.1695 34.7224 62.0064 31.8297 57.1172 27.1968C52.7648 23.0726 49.5539 17.188 50.3076 11.0232C50.6187 8.20594 51.9302 5.59379 54.0038 3.66149C56.0943 1.82313 58.6877 0.653386 61.4494 0.303188C67.6107 -0.565446 73.3861 2.35777 77.7775 6.48993C78.9211 7.57464 79.9932 8.73224 80.9873 9.95548L80.2609 10.3783C79.3236 5.74506 83.0067 1.48848 87.3193 0.316663C92.0092 -0.957679 96.6584 1.78405 99.3608 5.50098C102.736 10.1438 103.013 16.0978 102.026 21.572C101.002 27.2508 98.8832 32.8105 96.3093 37.9589C93.4396 43.6882 89.8028 48.9998 85.499 53.7471C85.1227 54.1626 84.5096 53.5465 84.8844 53.1326L84.8844 53.1326Z" fill="#3F3D56"/>
<path d="M87.9098 209.555L92.0111 210.719L108.126 159.402L96.3011 157.363L87.9098 209.555Z" fill="#FED7C6"/>
<path d="M136.048 209.85L140.104 208.981L129.612 156.393L118.203 160.11L136.048 209.85Z" fill="#FED7C6"/>
<path d="M92.8524 219.524C91.7293 220.036 90.7886 216.86 89.8414 217.791C87.1916 220.394 80.8352 219.811 80.8352 219.811C80.6218 219.742 80.4245 219.631 80.2553 219.484C80.0861 219.337 79.9486 219.157 79.851 218.955C79.7534 218.753 79.6977 218.534 79.6875 218.31C79.6772 218.086 79.7125 217.862 79.7912 217.652C79.8854 217.401 80.0392 217.177 80.2394 216.998C80.4395 216.819 80.6801 216.692 80.9403 216.627L83.7583 215.922L88.1829 208.141L93.0049 207.531L93.1267 207.73C94.0589 209.233 94.6599 210.917 94.8897 212.67C95.1195 214.423 94.9727 216.205 94.4591 217.897C94.0581 219.181 93.5122 219.222 92.8524 219.524Z" fill="#2F2E41"/>
<path d="M141.939 217.26C140.928 217.969 139.423 215.018 138.662 216.106C136.532 219.151 130.176 219.738 130.176 219.738C129.954 219.71 129.74 219.637 129.546 219.523C129.353 219.409 129.185 219.258 129.052 219.077C128.919 218.896 128.825 218.691 128.774 218.472C128.723 218.254 128.716 218.028 128.755 217.807C128.802 217.543 128.912 217.294 129.076 217.082C129.241 216.87 129.454 216.701 129.698 216.589L132.34 215.381L135.268 206.923L139.897 205.441L140.053 205.615C141.244 206.922 142.143 208.467 142.689 210.149C143.235 211.831 143.417 213.609 143.221 215.367C143.062 216.703 142.532 216.843 141.939 217.26Z" fill="#2F2E41"/>
<path d="M101.576 120.312C99.4166 123.633 97.3232 126.987 96.397 130.805C94.1576 140.149 92.5585 149.635 91.6109 159.197C99.1145 163.502 105.624 165.973 111.984 166.399C112.279 166.418 112.574 166.432 112.87 166.443L115.188 153.356L117.037 166.299C117.953 166.202 118.87 166.063 119.791 165.877C123.778 165.078 127.837 163.444 132.174 160.935C133.728 154.75 134.381 148.373 134.112 142.002C133.755 133.482 131.829 126.187 129.963 120.329L101.576 120.312Z" fill="#2F2E41"/>
<path d="M117.504 81.7248L127.698 78.2589C124.01 74.6488 122.504 70.6851 124.028 66.2302L112.611 68.269C115.32 73.4903 118.867 76.6343 117.504 81.7248Z" fill="#FED7C6"/>
<path d="M101.577 120.312C110.849 127.688 120.29 128.538 129.963 120.329C126.064 108.085 134.019 96.5723 132.86 87.8809C132.137 82.4585 129.882 75.742 124.638 74.1804L119.006 75.9013C117.053 76.4975 115.285 77.5852 113.872 79.0604C112.459 80.5355 111.449 82.3487 110.938 84.3262L110.272 86.9191C107.047 90.3493 105.972 94.8572 106.81 100.33C106.103 101.883 106.427 103.841 106.752 105.803C107.059 107.668 107.366 109.537 106.786 111.058C105.539 114.328 103.531 117.306 101.577 120.312" fill="#E02627"/>
<path d="M115.465 72.9582C110.398 72.9582 106.291 68.8507 106.291 63.7838C106.291 58.7169 110.398 54.6094 115.465 54.6094C120.532 54.6094 124.64 58.7169 124.64 63.7838C124.64 68.8507 120.532 72.9582 115.465 72.9582Z" fill="#FED7C6"/>
<path d="M83.9618 116.021L90.3887 113.917L89.9198 108.76L82.8631 108.603C82.3064 108.591 81.7538 108.701 81.2444 108.925C80.7349 109.15 80.2809 109.484 79.9145 109.903C79.5481 110.322 79.2782 110.817 79.1239 111.352C78.9696 111.887 78.9346 112.449 79.0215 112.999C79.1074 113.543 79.3103 114.062 79.6164 114.52C79.9224 114.978 80.3242 115.363 80.7939 115.651C81.2637 115.938 81.7903 116.12 82.3372 116.184C82.8842 116.248 83.4385 116.192 83.9618 116.021Z" fill="#FED7C6"/>
<path opacity="0.2" d="M96.3972 130.805C99.0539 129.559 105.1 126.418 113.835 120.053C125.864 111.287 122.805 89.8799 122.805 89.8799L106.752 105.802C107.059 107.668 107.366 109.537 106.786 111.058C104.162 117.941 98.1616 123.533 96.3972 130.805Z" fill="black"/>
<path d="M89.165 115.568C97.8684 117.496 104.989 118.653 110.776 114.549C119.954 103.875 125.17 93.1586 123.218 82.3672C123.037 81.3952 122.584 80.4943 121.911 79.7691C121.239 79.0439 120.375 78.524 119.42 78.2697C118.166 77.9308 116.831 78.0676 115.672 78.6537C114.513 79.2399 113.611 80.234 113.141 81.4449L106.207 104.684L88.2445 108.161L89.165 115.568Z" fill="#E02627"/>
<path d="M102.806 138.605C103.827 138.604 104.818 138.255 105.614 137.615C106.411 136.976 106.966 136.085 107.189 135.088L107.723 132.684L98.9557 130.736L98.4218 133.14C98.1635 134.303 98.3777 135.521 99.0171 136.525C99.6566 137.53 100.669 138.24 101.832 138.498C102.151 138.569 102.478 138.605 102.806 138.605ZM107.032 133.124L106.624 134.963C106.512 135.464 106.303 135.939 106.008 136.359C105.714 136.78 105.339 137.138 104.905 137.414C104.472 137.69 103.989 137.877 103.483 137.966C102.977 138.055 102.459 138.044 101.957 137.932C101.456 137.821 100.981 137.612 100.561 137.317C100.14 137.022 99.7818 136.647 99.506 136.214C99.2303 135.781 99.0426 135.297 98.9536 134.792C98.8647 134.286 98.8762 133.767 98.9876 133.266L99.3959 131.428L107.032 133.124Z" fill="#3F3D56"/>
<path d="M106.324 59.9491C106.324 59.9491 104.851 48.487 116.868 52.2457C116.868 52.2457 125.451 50.6709 128.266 61.4065L131.116 72.6601L129.727 71.9042L129.079 73.3196L126.829 73.8896L125.865 71.9779L125.399 74.2994L106.965 76.1372C106.965 76.1372 115.221 71.2543 115.352 62.5031L113.78 64.165L106.324 59.9491Z" fill="#2F2E41"/>
</svg>
