<svg width="73" height="220" viewBox="0 0 73 220" fill="none" xmlns="http://www.w3.org/2000/svg">
<g clip-path="url(#clip0_3590_194185)">
<path d="M20.552 44.2473C20.552 44.2473 16.526 52.4351 13.6309 59.8087C10.7357 67.1822 10.2381 74.0129 13.0428 75.4605C16.9784 77.4961 21.3663 77.6318 26.4328 68.0417C31.4993 58.4516 27.6994 36.7833 20.552 44.2473Z" fill="#2F2E41"/>
<path d="M42.2202 193.799C42.1749 194.342 43.8034 203.525 43.7129 204.204C43.5772 204.882 50.6341 206.646 54.0269 203.616C54.0269 203.616 53.5293 191.628 53.5293 189.818C53.5293 188.054 42.5368 188.733 42.2202 193.799Z" fill="#FED7C6"/>
<path d="M43.5777 202.575C43.5777 202.575 42.8087 205.968 41.6777 208.049C40.5468 210.13 34.3042 215.965 34.9828 217.956C35.6613 219.946 41.4063 220.127 45.8395 219.946C50.2727 219.765 52.2631 218.227 54.0273 215.06C55.8367 211.894 54.6154 209.768 54.3892 203.616C54.3892 203.616 54.2535 202.575 53.9821 202.394C53.9821 202.394 53.0773 203.977 52.0369 204.113C50.9965 204.204 49.956 201.716 47.4228 201.444C44.8895 201.218 44.5729 203.706 44.3015 203.706C43.9848 203.706 43.6682 203.299 43.5777 202.575Z" fill="#2F2E41"/>
<path d="M39.461 212.301C39.461 212.301 42.6276 210.944 48.5083 213.16" stroke="white" stroke-width="1.8" stroke-miterlimit="10" stroke-linecap="round" stroke-linejoin="round"/>
<path d="M40.5919 209.813C40.5919 209.813 43.7584 208.456 49.6392 210.673" stroke="white" stroke-width="1.8" stroke-miterlimit="10" stroke-linecap="round" stroke-linejoin="round"/>
<path d="M19.6025 192.216C19.5572 192.759 21.1857 201.942 21.0953 202.62C20.9596 203.299 28.0164 205.063 31.4092 202.032C31.4092 202.032 30.9116 190.044 30.9116 188.235C30.9116 186.471 19.8739 187.149 19.6025 192.216Z" fill="#FED7C6"/>
<path d="M20.9141 200.947C20.9141 200.947 20.1451 204.339 19.0142 206.42C17.8832 208.501 11.6406 214.337 12.3192 216.327C12.9977 218.318 18.7427 218.498 23.1759 218.318C27.6091 218.137 29.5995 216.599 31.3637 213.432C33.1732 210.265 31.9518 208.139 31.7256 201.987C31.7256 201.987 31.5899 200.947 31.3185 200.766C31.3185 200.766 30.4137 202.349 29.3733 202.485C28.3329 202.575 27.2924 200.087 24.7592 199.816C22.226 199.59 21.9093 202.078 21.6379 202.078C21.3212 202.123 21.0046 201.716 20.9141 200.947Z" fill="#2F2E41"/>
<path d="M16.8428 210.718C16.8428 210.718 20.0094 209.361 25.8901 211.577" stroke="white" stroke-width="1.8" stroke-miterlimit="10" stroke-linecap="round" stroke-linejoin="round"/>
<path d="M17.9283 208.23C17.9283 208.23 21.0948 206.872 26.9756 209.089" stroke="white" stroke-width="1.8" stroke-miterlimit="10" stroke-linecap="round" stroke-linejoin="round"/>
<path d="M62.4407 94.5956C62.4407 94.5956 63.7978 102.512 59.9075 121.104C58.7313 126.759 57.7814 134.132 57.1028 141.868C55.5196 159.51 56.8766 177.514 57.6909 184.616C58.867 194.794 53.6649 196.74 48.0555 197.192C42.4462 197.644 40.3653 195.066 40.0939 192.216C39.8225 189.366 36.475 151.367 35.2084 142.772C33.8965 134.178 33.8061 122.416 34.2132 120.697C34.6203 118.978 29.7348 119.34 31.7704 98.0788C33.7608 76.7272 60.8122 88.9411 62.4407 94.5956Z" fill="#2F2E41"/>
<path d="M23.4924 95.6363C23.4924 95.6363 16.7069 124.678 15.8927 133.725C15.0784 142.773 16.7522 187.15 16.7069 189.819C16.6165 192.488 19.1045 194.885 25.1662 195.021C31.2278 195.156 33.6706 191.13 33.6254 188.959C33.4897 181.721 33.3992 152.906 33.8516 148.472C34.3039 144.039 40.9085 122.235 42.2203 120.154C43.5322 118.028 46.4273 102.422 40.7275 99.7076C35.0277 96.9934 26.0709 92.9221 23.4924 95.6363Z" fill="#2F2E41"/>
<path d="M32.0422 37.6883C32.0422 37.6883 43.6227 37.2811 49.0059 36.5573C54.389 35.8336 64.4315 35.7883 68.4123 43.8857C72.3931 51.983 60.0435 55.9638 60.3602 61.7088C60.6316 67.4086 61.4911 77.1797 61.4911 77.1797C61.4911 77.1797 62.622 88.0817 63.8887 92.1982C65.1553 96.3147 62.7577 98.3956 61.6268 98.7575C60.4959 99.1194 48.7344 101.517 39.8229 101.019C30.9113 100.522 23.6282 98.486 22.9949 96.4956C22.3164 94.5052 23.402 88.6697 22.9949 82.5628C22.5878 76.4559 21.4116 65.7801 21.4116 61.7088C21.4116 57.6375 19.4212 47.3236 21.4116 43.0714C23.402 38.8192 28.1971 37.824 32.0422 37.6883Z" fill="#E02627"/>
<path d="M47.2414 32.8931C47.2414 32.8931 49.0961 33.1645 49.7294 34.3859C50.1365 35.155 50.6342 36.5573 50.5889 38.0048C50.5437 39.4524 48.3723 43.4332 42.0845 44.157C35.7514 44.8808 33.5348 41.8047 33.2634 40.6286C32.9919 39.4524 33.4443 36.2859 33.8967 35.743C34.3038 35.155 34.9823 34.5669 37.2442 34.2955C39.4608 33.9336 46.5176 32.6217 47.2414 32.8931Z" fill="#2F2E41"/>
<path d="M38.1494 60.3967C38.1494 60.3967 36.2947 58.4515 35.3447 57.004C34.3948 55.5564 33.1282 53.9731 32.0877 53.3851C31.0473 52.7517 28.8759 52.3899 28.2879 52.0732C27.6545 51.7566 27.0212 52.8875 28.2879 53.9279C29.5545 54.9683 29.0116 57.9992 30.7759 59.6277C32.5853 61.2562 37.5161 62.2514 38.1494 60.3967Z" fill="#FED7C6"/>
<path d="M24.9852 33.6168L2.14081 32.124C1.46227 32.0788 0.91943 32.6669 1.0099 33.3454L6.61922 67.8156C6.75493 68.5846 7.343 69.1727 8.11202 69.2632L29.9612 72.2488C30.6398 72.3392 31.2278 71.7512 31.1826 71.0726L26.5685 35.1549C26.5233 34.2954 25.8447 33.6621 24.9852 33.6168Z" fill="white"/>
<path d="M8.83597 33.7077L17.4761 34.16C17.7928 34.16 18.0642 33.8886 18.019 33.5719L17.8833 32.6672C17.838 32.3053 17.5214 32.0339 17.2047 32.0339L8.56454 31.5815C8.24789 31.5815 7.97648 31.853 8.02172 32.1696L8.15742 33.0743C8.20266 33.4362 8.51931 33.6624 8.83597 33.7077Z" fill="#2F2E41"/>
<path d="M59.2293 68.6298C59.2293 68.6298 56.3794 57.185 55.6556 52.7971C54.9318 48.4091 57.6912 43.5236 61.9435 42.4379C66.9195 41.2165 68.4575 43.8402 68.4575 43.8402C68.4575 43.8402 70.4479 47.3235 72.4383 58.2707C74.4287 69.2179 75.5597 79.3961 68.4575 81.8841C61.3554 84.3721 46.7893 76.2748 42.1299 72.7916C37.4706 69.3536 35.7516 67.8608 34.8468 67.6346C33.9421 67.4084 30.3684 68.3584 28.4685 66.2323C26.5686 64.1062 24.9401 62.4324 24.7591 62.4324C24.5782 62.4324 20.0545 63.111 19.2855 62.5229C18.426 61.8444 19.6926 61.1658 20.5974 61.0301C21.4569 60.8944 24.0806 60.0349 24.0806 60.0349C24.0806 60.0349 22.0449 59.4016 20.5974 58.8588C19.1498 58.2707 17.657 57.9993 17.7475 57.2302C17.8379 56.416 18.7427 56.5517 19.6474 56.5064C20.5521 56.4612 21.7735 56.7326 21.7735 56.7326C21.7735 56.7326 19.2855 56.0541 18.6522 55.3303C17.9737 54.5613 18.5617 53.9732 19.8736 54.1089C20.914 54.1994 22.3616 54.5613 22.3616 54.5613C22.3616 54.5613 19.8283 54.3351 20.0093 53.2042C20.145 52.4352 22.4068 52.8423 23.8996 53.0232C25.3924 53.2042 27.2924 53.5661 28.9209 53.9732C30.0065 54.2446 31.0017 54.5613 31.6803 54.8779C33.2636 55.647 37.2444 59.4468 37.8777 60.2158C38.511 60.9849 46.4726 62.2515 52.9867 63.6991C59.5007 65.1014 63.3006 66.3228 65.291 68.1775L59.2293 68.6298Z" fill="#FED7C6"/>
<path d="M36.5207 68.6298C37.6516 69.4441 39.3706 70.8012 42.0847 72.7916C46.7441 76.2295 61.3102 84.3269 68.4124 81.8841C75.4693 79.3961 74.3383 69.2179 72.3932 58.2707C70.4028 47.3235 68.4124 43.8402 68.4124 43.8402C68.4124 43.8402 66.8743 41.2165 61.8983 42.4379C57.6913 43.4784 54.8867 48.3639 55.6104 52.7971C56.0628 55.5565 57.3747 61.1658 58.2794 64.9204C56.6961 64.4681 54.8867 64.0609 52.8058 63.6086C48.1917 62.6134 42.8085 61.6634 39.8682 60.9396C39.9134 61.0753 40.5015 63.5181 39.3706 65.8252C38.3301 68.1775 36.5207 68.6298 36.5207 68.6298Z" fill="#2F2E41"/>
<path d="M47.6036 25.791C47.6036 25.791 47.7393 31.5813 48.1012 35.2002C48.4631 38.8191 41.7229 40.3119 38.4659 39.6786C35.2088 39.0453 34.7112 38.0501 34.7112 38.0501C34.7112 38.0501 34.9826 33.1646 34.7112 31.4003C34.4398 29.6361 47.5584 23.8911 47.6036 25.791Z" fill="#FED7C6"/>
<path d="M34.8015 36.7384C34.8467 36.0146 34.8467 35.0646 34.8467 34.1146C37.6061 34.2503 40.0489 31.7171 42.0393 29.6362C42.5821 33.9789 38.8275 36.7836 34.8015 36.7384Z" fill="#896068"/>
<path d="M29.4636 18.1007C29.4636 18.1007 27.2018 16.9245 26.5232 13.2152C25.8447 9.46053 26.6589 3.98692 29.1922 3.35361C31.7707 2.67507 29.9612 10.501 31.6802 11.9485C33.3992 13.3509 29.4636 16.0651 29.4636 18.1007Z" fill="#2F2E41"/>
<path d="M29.5543 11.7224C29.5543 11.7224 28.7853 14.8437 29.0567 19.4126C29.3281 24.0267 28.4234 31.8074 33.4446 34.0692C38.4659 36.331 45.1156 33.9787 47.8298 26.56C50.544 19.1412 50.5892 11.7676 46.4275 8.6011C42.2205 5.38931 31.0471 5.84167 29.5543 11.7224Z" fill="#FED7C6"/>
<path d="M47.2867 20.6341C47.2867 20.6341 45.7486 20.1365 45.7034 17.3771C45.7034 14.5724 44.2106 12.2653 41.225 13.0796C38.2394 13.8938 34.0776 16.2009 31.6348 16.1557C28.7397 16.0652 27.835 12.9439 27.6088 9.09879C27.3826 5.20845 28.6492 2.85615 30.142 3.26328C31.6348 3.67041 32.9015 4.93703 34.7562 2.58474C37.2894 -0.581816 39.5512 -0.491343 41.3607 1.00146C44.5272 3.67041 43.8035 5.07274 46.6986 3.94183C48.3723 3.26328 49.5485 3.44423 50.3627 6.56555C51.177 9.68686 50.8603 10.5464 52.8055 10.2749C54.7959 10.0035 53.5293 20.3174 50.3627 22.6245C50.3175 22.6245 47.8747 20.4079 47.2867 20.6341Z" fill="#2F2E41"/>
<path d="M31.7256 21.4033C31.5447 21.9009 31.4542 22.3985 31.3185 22.8509C31.1828 23.3033 31.0471 23.8008 30.9114 24.1627C30.8209 24.3889 30.6852 24.7056 30.6852 25.0222C30.6852 25.3389 30.7304 25.7008 30.9566 25.927C31.3637 26.4246 31.9518 26.5603 32.4946 26.515C32.0423 26.2436 31.6351 25.927 31.4994 25.6103C31.3637 25.2937 31.4542 24.9318 31.6804 24.5246C31.9065 23.9818 31.997 23.4842 31.997 22.9414C31.9518 22.3985 31.8613 21.9009 31.7256 21.4033Z" fill="#2F2E41"/>
<path d="M36.1136 17.4675C35.7065 17.5128 35.3898 17.1509 35.5256 16.7438C35.6613 16.3366 35.7517 15.9747 36.2041 15.8843C37.1541 15.6581 39.1897 15.839 40.4111 16.7438C41.6325 17.6485 40.4563 17.8294 38.9183 17.5128C37.8326 17.3318 36.8374 17.3771 36.1136 17.4675Z" fill="#2F2E41"/>
<path d="M38.1944 26.5604C35.7211 26.5604 33.716 24.4743 33.716 21.901C33.716 19.3278 35.7211 17.2417 38.1944 17.2417C40.6678 17.2417 42.6729 19.3278 42.6729 21.901C42.6729 24.4743 40.6678 26.5604 38.1944 26.5604Z" stroke="#2F2E41" stroke-miterlimit="10" stroke-linecap="round" stroke-linejoin="round"/>
<path d="M28.8305 26.1534C27.2315 26.1534 25.9353 24.2496 25.9353 21.9011C25.9353 19.5527 27.2315 17.6489 28.8305 17.6489C30.4294 17.6489 31.7256 19.5527 31.7256 21.9011C31.7256 24.2496 30.4294 26.1534 28.8305 26.1534Z" stroke="#2F2E41" stroke-miterlimit="10" stroke-linecap="round" stroke-linejoin="round"/>
<path d="M31.6353 20.9512C31.6353 20.9512 32.2234 20.137 33.8066 20.9512" stroke="#22272E" stroke-miterlimit="10" stroke-linecap="round" stroke-linejoin="round"/>
<path d="M42.4919 20.5893L47.875 20.1821" stroke="#2F2E41" stroke-miterlimit="10" stroke-linecap="round" stroke-linejoin="round"/>
<path d="M35.4801 29.7267C35.4801 29.7267 37.5157 29.591 38.5562 27.6006" stroke="#2F2E41" stroke-miterlimit="10" stroke-linecap="round" stroke-linejoin="round"/>
<path d="M37.5156 23.6197C37.1084 23.6649 36.7466 23.3483 36.7013 22.8959L36.6561 22.4436C36.6108 22.0364 36.9275 21.6745 37.3799 21.6293C37.787 21.5841 38.1489 21.9007 38.1941 22.3531L38.2394 22.8054C38.2846 23.2578 37.9679 23.5745 37.5156 23.6197Z" fill="#2F2E41"/>
<path d="M30.8206 23.7554C30.4135 23.8007 30.0516 23.484 30.0064 23.0317L29.9612 22.5793C29.9159 22.1722 30.2326 21.8103 30.6849 21.765C31.0921 21.7198 31.454 22.0365 31.4992 22.4888L31.5444 22.9412C31.5444 23.3483 31.2278 23.7102 30.8206 23.7554Z" fill="#2F2E41"/>
<path d="M47.4675 20.7699C47.4675 20.7699 48.7794 18.5081 50.5436 19.0961C52.3079 19.6842 52.2626 22.3984 51.4031 24.0269C50.3174 26.1078 47.8294 26.7411 46.5176 26.5149" fill="#FED7C6"/>
<path d="M50.5891 22.3981C50.6795 22.1719 50.7248 21.9457 50.6795 21.6743C50.6795 21.5386 50.589 21.4029 50.4986 21.2672C50.3629 21.1315 50.1819 21.041 50.001 21.041C49.6843 21.041 49.3677 21.1767 49.1867 21.4029C49.0058 21.5839 48.8701 21.81 48.7344 22.0362C48.5082 22.4433 48.4177 22.8505 48.282 23.2124C48.1915 23.3933 48.1463 23.529 48.0558 23.6195C47.9653 23.71 47.7391 23.71 47.513 23.71C47.6487 23.8909 47.8749 24.0719 48.1915 24.0266C48.5082 23.9362 48.6891 23.7552 48.8701 23.5743C49.1415 23.1671 49.3224 22.8052 49.5034 22.4433C49.6843 22.0815 49.8653 21.81 50.0462 21.7648C50.0914 21.7648 50.1367 21.7196 50.1819 21.7648C50.2272 21.7648 50.2724 21.81 50.3176 21.9005C50.4081 21.9457 50.4986 22.1719 50.5891 22.3981Z" fill="#2F2E41"/>
<path d="M58.2793 113.188C58.2793 113.188 52.9866 110.926 52.9866 103.236" stroke="white" stroke-miterlimit="10" stroke-linecap="round" stroke-linejoin="round"/>
</g>
<defs>
<clipPath id="clip0_3590_194185">
<rect width="73" height="220" fill="white"/>
</clipPath>
</defs>
</svg>
