<?xml version="1.0" encoding="utf-8"?><svg viewBox="0 0 25 24" xmlns="http://www.w3.org/2000/svg" xmlns:xlink="http://www.w3.org/1999/xlink"><style>:root>svg{display:none}:root>svg:target{display:block}</style><svg fill="none" viewBox="0 0 24 24" id="icon-cereals" xmlns="http://www.w3.org/2000/svg"><path d="M5.158 14.992c-1.8-5.128 4.45-11.03 9.035-9.569" stroke="#FA4F4F" stroke-width="2" stroke-linecap="round"/><path d="M22.294 4.414l.081.071.095.052c.043.024.078.05.108.08.145.145.331.604 0 1.592-.31.924-1.001 2.036-2.036 3.071-1.035 1.035-2.147 1.726-3.07 2.036-.99.33-1.448.144-1.592 0a.457.457 0 01-.05-.058l-.082-.116-.112-.088-.341-.27-.62.784.62-.785a6.015 6.015 0 00-.83-.568l1.041.584.393-1.128c.318-.914 1.003-2.003 2.017-3.017.84-.84 1.736-1.459 2.546-1.827l1.515-.69.317.277zm-7.459-3.37c1.667.15 3.183.652 4.451 1.286-1.263-.631-2.78-1.137-4.45-1.285zm-10.46 21.58l-.052-.096-.07-.083a11.1 11.1 0 01-.289-.351l.75-1.572c.373-.784.975-1.642 1.78-2.447 1.041-1.04 2.16-1.734 3.087-2.04l1.076-.357-.487-1.023a4.34 4.34 0 01-.237-.606c.206.678.595 1.292.982 1.767l.082.1.105.076c.02.014.038.03.055.047.144.144.33.603-.001 1.591-.31.925-1.001 2.037-2.036 3.071-1.034 1.035-2.146 1.726-3.07 2.036-.989.331-1.448.145-1.592 0a.475.475 0 01-.084-.113zm6.069-11.364c-.27.338-.458.7-.564 1.083l-.001.006c.1-.366.28-.732.565-1.09z" fill="#fff" stroke="#333" stroke-width="2"/></svg><svg fill="none" viewBox="0 0 25 24" id="icon-fish" xmlns="http://www.w3.org/2000/svg"><path d="M11 11.727c0 2.428-.632 4.578-1.6 6.09-.975 1.524-2.2 2.285-3.4 2.285-1.2 0-2.425-.76-3.4-2.284-.968-1.513-1.6-3.664-1.6-6.09 0-2.427.632-4.578 1.6-6.09.975-1.524 2.2-2.285 3.4-2.285 1.2 0 2.425.76 3.4 2.284.968 1.513 1.6 3.664 1.6 6.09z" stroke="#333" stroke-width="2"/><path d="M7.276 11.726c0 .692-.202 1.277-.48 1.664-.278.389-.573.513-.796.513-.224 0-.52-.124-.798-.513-.277-.387-.48-.972-.48-1.664 0-.693.203-1.278.48-1.665.279-.388.574-.513.798-.513.223 0 .518.125.797.514.277.386.48.972.48 1.664z" stroke="#FA4F4F" stroke-width="2"/><path d="M5.982 3.338c5.977 0 9.855 3.534 12.055 6.197.569.69 1.777.432 2.053-.418.416-1.286 1.048-2.682 1.923-3.383.465-.372 1.008.076 1.008.672V16.46c0 .75-.783 1.19-1.294.64-.802-.862-1.354-1.978-1.708-2.975-.289-.814-1.457-1.176-2.06-.558-2.75 2.812-7.159 6.84-11.977 6.536" stroke="#333" stroke-width="2"/></svg><svg fill="none" viewBox="0 0 24 24" id="icon-fruct" xmlns="http://www.w3.org/2000/svg"><mask id="ca" fill="#fff"><path fill-rule="evenodd" clip-rule="evenodd" d="M12.04 23.488a7.19 7.19 0 01-.557.182c-4.229 1.192-8.75-1.719-10.1-6.502-1.35-4.784.984-9.63 5.213-10.822 1.856-.524 3.768-.257 5.444.612 1.676-.869 3.588-1.136 5.444-.612 4.228 1.193 6.562 6.038 5.213 10.822-1.35 4.783-5.872 7.695-10.1 6.502a7.19 7.19 0 01-.557-.182z"/></mask><path d="M12.04 23.488l.699-1.874-.7-.261-.698.26.699 1.875zm-.557.182l.543 1.924-.543-1.924zm-10.1-6.502l-1.925.543 1.925-.543zM6.596 6.346l.543 1.925-.543-1.925zm5.444.612l-.92 1.775.92.478.92-.478-.92-1.775zm5.444-.612L16.94 8.27l.543-1.925zm5.213 10.822l-1.925-.543 1.925.543zm-10.1 6.502l-.543 1.924.543-1.924zm-1.256-2.056c-.13.048-.264.092-.401.13l1.086 3.85c.242-.068.48-.146.713-.233l-1.398-3.747zm-.401.13c-2.95.833-6.518-1.169-7.632-5.12l-3.85 1.087c1.584 5.617 7.06 9.437 12.568 7.884l-1.086-3.85zm-7.632-5.12c-1.115-3.95.881-7.521 3.83-8.353L6.054 4.42C.545 5.975-2.127 12.094-.542 17.71l3.85-1.086zm3.83-8.353c1.32-.373 2.712-.196 3.981.462l1.841-3.55c-2.082-1.08-4.516-1.437-6.907-.762l1.086 3.85zm10.889-3.85c-2.392-.675-4.826-.318-6.908.761l1.841 3.551c1.27-.658 2.66-.835 3.98-.462l1.087-3.85zm6.595 13.29c1.584-5.617-1.087-11.736-6.595-13.29L16.94 8.27c2.949.832 4.945 4.403 3.83 8.354l3.85 1.086zm-12.568 7.884c5.508 1.553 10.983-2.267 12.568-7.884l-3.85-1.086c-1.115 3.95-4.683 5.952-7.632 5.12l-1.086 3.85zm-.713-.234c.233.087.47.165.713.233l1.086-3.85a5.146 5.146 0 01-.401-.13L11.34 25.36z" fill="#333" mask="url(#ca)"/><path d="M15.389 1.89A1 1 0 1014.135.33l1.254 1.558zm-2.52 5.693c-.213-.901-.137-3.554 2.52-5.694L14.135.331c-3.328 2.68-3.582 6.154-3.211 7.714l1.946-.462z" fill="#333"/><path d="M5.635 16.084c-.672-2.383.49-4.797 2.597-5.39" stroke="#FA4F4F" stroke-width="2" stroke-linecap="round"/><path d="M10.216 1.138c.703.271.906.588.978.818.09.284.064.711-.168 1.312-.23.6-.498.934-.755 1.085-.207.122-.57.221-1.274-.05-.253-.097-.56-.321-.9-.688a8.175 8.175 0 01-.915-1.236c-.164-.266-.31-.525-.433-.758.247-.09.53-.185.83-.272a8.174 8.174 0 011.508-.303c.498-.045.876-.005 1.129.092z" stroke="#333" stroke-width="2"/></svg><svg fill="none" viewBox="0 0 24 24" id="icon-hleb" xmlns="http://www.w3.org/2000/svg"><path d="M2.536 21.755a4.251 4.251 0 01-.813-4.873l.892-1.825a27 27 0 0112.4-12.401l1.826-.892a4.251 4.251 0 014.873 6.825L8.548 21.755a4.251 4.251 0 01-6.012 0z" stroke="#333" stroke-width="2"/><path d="M8.79 10.048a1 1 0 00-.9 1.786l.9-1.786zm.472 3.769a1 1 0 001.915-.578l-1.915.578zM7.89 11.834c.54.271 1.026.832 1.373 1.983l1.915-.578c-.444-1.471-1.197-2.591-2.388-3.191l-.9 1.786zM12.596 6.495a1 1 0 00-.968 1.75l.968-1.75zm-.003 3.471a1 1 0 001.988-.218l-1.988.218zm-.965-1.721c.102.057.333.267.565.652.222.367.366.762.4 1.07l1.988-.22c-.074-.669-.348-1.34-.676-1.885-.319-.526-.772-1.07-1.31-1.367l-.967 1.75zM16.385 3.887a1 1 0 10-.783 1.84l.783-1.84zm-.204 3.178a1 1 0 102 0h-2zm-.579-1.337c-.01-.004.033.013.11.1.075.085.156.206.232.358.158.319.237.66.237.879h2c0-.588-.18-1.232-.446-1.77-.253-.508-.69-1.127-1.35-1.408l-.783 1.84zM6.369 14.03a1 1 0 00-1.197 1.602l1.197-1.603zM5.9 16.957a1 1 0 101.937-.5l-1.937.5zm-.728-1.326c.047.035.19.178.356.453.156.26.294.568.372.873l1.937-.5a5.354 5.354 0 00-.599-1.408c-.234-.387-.534-.77-.87-1.02l-1.196 1.602z" fill="#FA4F4F"/></svg><svg fill="none" viewBox="0 0 24 24" id="icon-jam" xmlns="http://www.w3.org/2000/svg"><path d="M21.254 18.902c0 .822-.697 1.839-2.449 2.71C17.115 22.451 14.711 23 12 23c-2.71 0-5.115-.548-6.805-1.389-1.75-.87-2.448-1.887-2.448-2.709 0-.822.697-1.838 2.448-2.709 1.69-.84 4.095-1.388 6.805-1.388s5.116.548 6.805 1.388c1.752.87 2.449 1.887 2.449 2.71z" stroke="#333" stroke-width="2"/><path d="M2.747 18.902V12.24a4 4 0 011.948-3.433l2.396-1.432M21.252 18.902v-6.625a4 4 0 00-1.999-3.463l-2.493-1.44" stroke="#333" stroke-width="2"/><path fill="#fff" d="M3.746 13.406H20.25v5.496H3.746z"/><path d="M2.362 7.09l3.187-.991a2 2 0 01.594-.09H18.09c.203 0 .406.03.6.092l3.26 1.033c.998.316.947 1.745-.071 1.99a1.033 1.033 0 00-.792 1.004v.175c0 .927-.97 1.535-1.805 1.13l-1.37-.667a2 2 0 00-2.169.273l-1.093.928a2 2 0 01-2.047.327l-2.82-1.146a2 2 0 00-1.251-.083l-3.116.802a1.77 1.77 0 01-2.157-1.282l-.076-.3a1.22 1.22 0 00-.821-.866c-1.144-.355-1.145-1.974-.001-2.33z" fill="#fff" stroke="#333" stroke-width="2"/><path d="M17.902 6.431c0 .362-.322.962-1.467 1.531-1.083.539-2.65.9-4.435.9-1.785 0-3.351-.361-4.435-.9C6.42 7.393 6.1 6.793 6.1 6.432c0-.362.321-.962 1.466-1.532C8.65 4.362 10.215 4 12 4c1.785 0 3.352.362 4.435.9 1.145.57 1.467 1.17 1.467 1.531z" fill="#fff" stroke="#333" stroke-width="2"/><path fill="#fff" d="M7.137 4.114h9.727v2.315H7.137z"/><path d="M17.902 3.431c0 .362-.322.962-1.467 1.531-1.083.539-2.65.9-4.435.9-1.785 0-3.351-.361-4.435-.9C6.42 4.393 6.1 3.793 6.1 3.432c0-.362.321-.962 1.466-1.532C8.65 1.362 10.215 1 12 1c1.785 0 3.352.362 4.435.9 1.145.57 1.467 1.17 1.467 1.531z" fill="#fff" stroke="#333" stroke-width="2"/><path stroke="#333" stroke-width="2" d="M6.099 3.431v3M17.901 3.431v3"/><path d="M8.561 16.636c0-.67.777-1.37 1.724-1.214.555.09 1.156.152 1.767.152.612 0 1.213-.062 1.767-.152.947-.156 1.724.544 1.724 1.214v1.091c0 .398-.215.647-.45.719-.733.224-1.8.459-3.04.459-1.242 0-2.308-.235-3.042-.459-.235-.072-.45-.32-.45-.719v-1.091z" stroke="#FA4F4F" stroke-width="2"/></svg><svg fill="none" viewBox="0 0 24 24" id="icon-milk" xmlns="http://www.w3.org/2000/svg"><path fill-rule="evenodd" clip-rule="evenodd" d="M4.574 9.04c1.855.85 4.558 1.43 7.652 1.43.494 0 .98-.016 1.454-.044-.29-.19-.579-.376-.855-.554-.122-.079-.24-.156-.357-.23-.44-.285-.864-.562-1.156-.773a3.924 3.924 0 01-.528-.443 2.227 2.227 0 01-.25-.312 2.047 2.047 0 01-.338-1.004 2.015 2.015 0 011.011-1.872 2.05 2.05 0 011.019-.269h7.803a12.087 12.087 0 00-1.434-.57c-1.742-.573-3.944-.93-6.37-.93-3.093 0-5.796.579-7.651 1.43-1.968.901-2.327 1.755-2.347 2.045v.063c.03.3.406 1.144 2.347 2.033zM.228 7.07a2.573 2.573 0 01-.002-.1c0-3.038 5.372-5.5 12-5.5 5.22 0 9.662 1.527 11.312 3.66.19.246.258.5.23.736v9.798c.08.692-.66 1.305-1.541 1.305h-4.884v4.082a.78.78 0 010 .078v.014h-.001c-.037.521-.61.946-1.562 1.08a25.36 25.36 0 01-3.554.246c-6.628 0-12-2.462-12-5.5 0-.033 0-.067.002-.1v-9.8zm2 6.857v-3.915c2.15 1.481 5.825 2.457 9.998 2.457 1.078 0 2.123-.065 3.117-.187v8.005c-.477.056-1.038.103-1.678.129l.016.01c-.475.028-.961.043-1.455.043-3.094 0-5.797-.579-7.652-1.429-2.03-.93-2.348-1.81-2.348-2.07h.002v-.039a.553.553 0 01.007-.052v-2.958a.33.33 0 00-.007.006zm15.115-2.791c.02-.358-.21-.76-.745-1.146-.463-.334-.98-.683-1.492-1.02-.413-.273-.824-.538-1.2-.781l-.08-.052c-.811-.523-1.45-.938-1.6-1.097-.044-.046-.046-.07 0-.07h9.543v6.664l-.011-.006v.341a1 1 0 01-1 1h-3.415v-3.833z" fill="#000"/><circle cx="4.695" cy="14.015" r="1.228" fill="#FA4F4F"/><circle cx="7.572" cy="6.954" r="1.228" fill="#FA4F4F"/><circle cx="11.116" cy="15.946" r="1.957" fill="#FA4F4F"/></svg><svg fill="none" viewBox="0 0 24 22" id="icon-myaso" xmlns="http://www.w3.org/2000/svg"><path fill-rule="evenodd" clip-rule="evenodd" d="M3.142 5.706C4.204 4.568 6.164 3.655 8.58 3.108c2.364-.535 4.845-.648 6.634-.444 3.974.454 5.616 1.21 6.556 2.223.215.231.259.512.21.667-.027.088-.288.762-2.194 1.282-1.236.337-2.236.758-2.988 1.368a4.038 4.038 0 00-1.41 2.202 9.099 9.099 0 00-.227 1.14c-.051.37-.066.478-.385.827-.373.41-1.434.928-3.266 1.038-1.733.104-3.784-.188-5.681-.94-2.385-.943-3.405-2.26-3.711-3.332-.302-1.055-.039-2.293 1.024-3.433zM1.679 4.342C4.611 1.2 11.383.214 15.44.677c4.058.463 6.338 1.277 7.797 2.85.451.487.788 1.208.762 1.98H24v6.115h-.008c-.095 1.165-1.04 2.423-3.68 3.143-2.788.76-2.933 1.671-3.106 2.76-.105.664-.222 1.393-.951 2.195-1.792 1.967-6.821 2.328-11.162.611C1.616 18.956.008 16.636 0 14.322v-5.84h.003c-.051-1.452.53-2.91 1.676-4.14zM2 12.476v1.927h.003c.008.253.047.499.115.735.306 1.072 1.326 2.39 3.71 3.334 1.898.75 3.949 1.043 5.682.939 1.832-.11 2.893-.629 3.266-1.038.319-.35.334-.458.385-.828.033-.233.08-.57.227-1.14a4.038 4.038 0 011.41-2.202c.752-.609 1.752-1.03 2.988-1.368 1.906-.52 2.166-1.194 2.194-1.282a.42.42 0 00.018-.108H22V8.128a8.595 8.595 0 01-1.688.637c-2.788.76-2.933 1.672-3.106 2.76-.105.664-.222 1.394-.951 2.195-1.792 1.967-6.821 2.329-11.162.612-1.28-.507-2.306-1.14-3.093-1.856z" fill="#333"/><ellipse cx="12.942" cy="6.11" rx="2.903" ry="1.89" fill="#FA4F4F"/></svg><svg fill="none" viewBox="0 0 24 24" id="icon-sous" xmlns="http://www.w3.org/2000/svg"><mask id="ha" fill="#fff"><path fill-rule="evenodd" clip-rule="evenodd" d="M10.164 0a2 2 0 00-2 2v8.1l-4.517 2.849a2 2 0 00-.897 2.072l1.427 7.36A2 2 0 006.14 24h11.72a2 2 0 001.964-1.62l1.426-7.36a2 2 0 00-.896-2.071l-4.37-2.758V2a2 2 0 00-2-2h-3.82z"/></mask><path d="M8.164 10.1l1.067 1.69.933-.588V10.1h-2zm-4.517 2.849l1.067 1.691-1.067-1.691zM2.75 15.02l-1.963.38 1.963-.38zm1.427 7.36L6.14 22l-1.963.38zm15.647 0l1.963.38-1.963-.38zm1.426-7.36l-1.963-.38 1.963.38zm-.896-2.072l1.067-1.692-1.067 1.692zm-4.37-2.758h-2v1.103l.932.589 1.068-1.691zM10.164 2v-4a4 4 0 00-4 4h4zm0 8.1V2h-4v8.1h4zm-5.45 4.54l4.517-2.85-2.135-3.382-4.516 2.85 2.134 3.382zm0 0L2.58 11.257a4 4 0 00-1.793 4.144l3.927-.76zM6.14 22l-1.426-7.36-3.927.761 1.426 7.36L6.14 22zm0 0l-3.927.761A4 4 0 006.14 26v-4zm11.72 0H6.14v4h11.72v-4zm0 0v4a4 4 0 003.927-3.239L17.86 22zm1.427-7.36L17.86 22l3.927.761 1.427-7.36-3.927-.76zm0 0l3.927.761a4 4 0 00-1.793-4.144l-2.134 3.383zm-4.37-2.757l4.37 2.757 2.134-3.383-4.37-2.757-2.135 3.383zM13.983 2v8.191h4V2h-4zm0 0h4a4 4 0 00-4-4v4zm-3.82 0h3.82v-4h-3.82v4z" fill="#333" mask="url(#ha)"/><path stroke="#333" stroke-width="2" d="M9.626 3.987h4.8M9.626 7.987h4.8"/><rect x="9.147" y="15.18" width="5.708" height="3.989" rx="1" stroke="#FA4F4F" stroke-width="2"/></svg><svg fill="none" viewBox="0 0 24 24" id="icon-tea" xmlns="http://www.w3.org/2000/svg"><path d="M1 11.076a2 2 0 01.628-1.455L5.12 6.327a2 2 0 011.372-.545h2.742a2 2 0 011.38.552L14.06 9.62a2 2 0 01.62 1.447v9.889a2 2 0 01-2 2H3a2 2 0 01-2-2v-9.879z" stroke="#333" stroke-width="2"/><path d="M7.805 9.075V6a5 5 0 015-5h2.854a5 5 0 015 5v6.103" stroke="#333" stroke-width="2" stroke-linecap="round"/><rect x="18.577" y="12.097" width="4.423" height="5.197" rx="2" stroke="#333" stroke-width="2"/><path fill-rule="evenodd" clip-rule="evenodd" d="M11.945 12.097a1 1 0 10-2 0v.463a1 1 0 102 0v-.463zm-6.281 4.927a1 1 0 10-2 0v.463a1 1 0 102 0v-.463zm-1-5.927a1 1 0 011 1v.463a1 1 0 11-2 0v-.463a1 1 0 011-1zm7.281 5.927a1 1 0 10-2 0v.463a1 1 0 102 0v-.463zM7.828 13.56a1 1 0 011 1v.464a1 1 0 11-2 0v-.463a1 1 0 011-1zm1 5.927a1 1 0 00-2 0v.464a1 1 0 102 0v-.464z" fill="#FA4F4F"/></svg><svg fill="none" viewBox="0 0 24 24" id="icon-water" xmlns="http://www.w3.org/2000/svg"><rect x="3" y="7.163" width="15.396" height="15.837" rx="2" stroke="#333" stroke-width="2"/><path d="M13.065 8.11l2.965-4.995a3 3 0 011.87-1.383L20.901 1" stroke="#333" stroke-width="2" stroke-linecap="round"/><rect x="3" y="7.163" width="10.763" height="15.837" rx="2" fill="#fff" stroke="#333" stroke-width="2"/><path d="M10.233 14.582a1.85 1.85 0 01-1.852 1.85 1.85 1.85 0 111.852-1.85z" stroke="#FA4F4F" stroke-width="2"/></svg></svg>