<svg width="24" height="24" viewBox="0 0 24 24" fill="none" xmlns="http://www.w3.org/2000/svg">
<mask id="path-1-inside-1" fill="white">
<path fill-rule="evenodd" clip-rule="evenodd" d="M12.0397 23.4874C11.858 23.5552 11.6723 23.616 11.4828 23.6695C7.25414 24.8624 2.73215 21.9513 1.38262 17.1675C0.0330963 12.3836 2.36708 7.53849 6.59572 6.34559C8.45153 5.82207 10.3638 6.08898 12.0397 6.95773C13.7155 6.08898 15.6278 5.82207 17.4836 6.34559C21.7123 7.53849 24.0463 12.3836 22.6967 17.1675C21.3472 21.9513 16.8252 24.8624 12.5966 23.6695C12.4071 23.616 12.2214 23.5552 12.0397 23.4874Z"/>
</mask>
<path d="M12.0397 23.4874L12.7387 21.6136L12.0397 21.3528L11.3406 21.6136L12.0397 23.4874ZM11.4828 23.6695L12.0258 25.5943L12.0258 25.5943L11.4828 23.6695ZM1.38262 17.1675L-0.542254 17.7105L1.38262 17.1675ZM6.59572 6.34559L6.05272 4.42072L6.59572 6.34559ZM12.0397 6.95773L11.1192 8.73333L12.0397 9.21049L12.9601 8.73333L12.0397 6.95773ZM17.4836 6.34559L16.9406 8.27047L17.4836 6.34559ZM22.6967 17.1675L20.7719 16.6245L22.6967 17.1675ZM12.5966 23.6695L12.0536 25.5943L12.0536 25.5943L12.5966 23.6695ZM11.3406 21.6136C11.2101 21.6623 11.0765 21.706 10.9398 21.7446L12.0258 25.5943C12.268 25.526 12.5058 25.4482 12.7387 25.3613L11.3406 21.6136ZM10.9398 21.7446C7.99052 22.5766 4.42202 20.5753 3.3075 16.6245L-0.542254 17.7105C1.04227 23.3274 6.51776 27.1482 12.0258 25.5943L10.9398 21.7446ZM3.3075 16.6245C2.19297 12.6736 4.18948 9.10245 7.13873 8.27047L6.05272 4.42072C0.544687 5.97453 -2.12678 12.0936 -0.542254 17.7105L3.3075 16.6245ZM7.13873 8.27047C8.45881 7.89808 9.84956 8.07514 11.1192 8.73333L12.9601 5.18213C10.8781 4.10282 8.44424 3.74607 6.05272 4.42072L7.13873 8.27047ZM18.0266 4.42072C15.6351 3.74607 13.2013 4.10282 11.1192 5.18213L12.9601 8.73333C14.2298 8.07514 15.6205 7.89808 16.9406 8.27047L18.0266 4.42072ZM24.6216 17.7105C26.2061 12.0936 23.5347 5.97453 18.0266 4.42072L16.9406 8.27047C19.8899 9.10245 21.8864 12.6736 20.7719 16.6245L24.6216 17.7105ZM12.0536 25.5943C17.5616 27.1482 23.0371 23.3274 24.6216 17.7105L20.7719 16.6245C19.6573 20.5753 16.0888 22.5766 13.1396 21.7446L12.0536 25.5943ZM11.3406 25.3613C11.5736 25.4482 11.8113 25.526 12.0536 25.5943L13.1396 21.7446C13.0029 21.706 12.8692 21.6623 12.7387 21.6136L11.3406 25.3613Z" fill="#EB292F" mask="url(#path-1-inside-1)"/>
<path d="M15.3888 1.88937C15.819 1.54302 15.887 0.913515 15.5406 0.483326C15.1943 0.0531379 14.5648 -0.0148292 14.1346 0.331518L15.3888 1.88937ZM12.8695 7.58316C12.6557 6.68175 12.7316 4.02872 15.3888 1.88937L14.1346 0.331518C10.8066 3.01089 10.5535 6.48491 10.9235 8.04468L12.8695 7.58316Z" fill="#EB292F"/>
<path d="M5.63522 16.0841C4.96295 13.701 6.12564 11.2874 8.23215 10.6932" stroke="#FA4F4F" stroke-width="2" stroke-linecap="round"/>
<path d="M10.2158 1.13831C10.9194 1.40918 11.1226 1.72622 11.1945 1.95588C11.2835 2.24013 11.2579 2.66719 11.0267 3.26759C10.7956 3.868 10.5283 4.20203 10.2716 4.35319C10.0642 4.47533 9.70095 4.5743 8.99733 4.30343C8.74468 4.20617 8.43739 3.98189 8.09789 3.61538C7.76673 3.25788 7.45519 2.82003 7.18228 2.3786C7.01809 2.11303 6.87245 1.85365 6.74915 1.62085C6.99674 1.53082 7.27871 1.43606 7.57859 1.34915C8.07706 1.20468 8.60178 1.08876 9.08718 1.04561C9.5848 1.00138 9.96316 1.04105 10.2158 1.13831Z" stroke="#EB292F" stroke-width="2"/>
</svg>
